<svg width="18" height="18" viewBox="0 0 18 18" fill="none" xmlns="http://www.w3.org/2000/svg">
<path d="M14.0858 13.2898C14.138 13.3421 14.1795 13.4042 14.2078 13.4724C14.2361 13.5407 14.2506 13.6139 14.2506 13.6878C14.2506 13.7617 14.2361 13.8349 14.2078 13.9032C14.1795 13.9715 14.138 14.0335 14.0858 14.0858C14.0335 14.138 13.9715 14.1795 13.9032 14.2078C13.8349 14.2361 13.7617 14.2506 13.6878 14.2506C13.6139 14.2506 13.5407 14.2361 13.4724 14.2078C13.4042 14.1795 13.3421 14.138 13.2898 14.0858L8.62531 9.42055L3.96078 14.0858C3.85523 14.1913 3.71208 14.2506 3.56281 14.2506C3.41355 14.2506 3.27039 14.1913 3.16484 14.0858C3.0593 13.9802 3 13.8371 3 13.6878C3 13.5385 3.0593 13.3954 3.16484 13.2898L7.83008 8.62531L3.16484 3.96078C3.0593 3.85523 3 3.71208 3 3.56281C3 3.41355 3.0593 3.27039 3.16484 3.16484C3.27039 3.0593 3.41355 3 3.56281 3C3.71208 3 3.85523 3.0593 3.96078 3.16484L8.62531 7.83008L13.2898 3.16484C13.3954 3.0593 13.5385 3 13.6878 3C13.8371 3 13.9802 3.0593 14.0858 3.16484C14.1913 3.27039 14.2506 3.41355 14.2506 3.56281C14.2506 3.71208 14.1913 3.85523 14.0858 3.96078L9.42055 8.62531L14.0858 13.2898Z" fill="#716B6B"/>
</svg>
