<svg width="30" height="30" viewBox="0 0 30 30" fill="none" xmlns="http://www.w3.org/2000/svg">
<path d="M25.9908 20.618C25.3404 19.4977 24.3736 16.3277 24.3736 12.1875C24.3736 9.7011 23.3859 7.31653 21.6278 5.55837C19.8696 3.80022 17.485 2.8125 14.9986 2.8125C12.5122 2.8125 10.1277 3.80022 8.36952 5.55837C6.61136 7.31653 5.62364 9.7011 5.62364 12.1875C5.62364 16.3289 4.65567 19.4977 4.00528 20.618C3.83919 20.9028 3.75114 21.2264 3.75001 21.5561C3.74888 21.8858 3.83471 22.2099 3.99884 22.4959C4.16297 22.7818 4.39959 23.0195 4.68486 23.1848C4.97012 23.3501 5.29394 23.4373 5.62364 23.4375H10.4061C10.6224 24.4959 11.1976 25.4471 12.0344 26.1302C12.8713 26.8133 13.9184 27.1864 14.9986 27.1864C16.0789 27.1864 17.126 26.8133 17.9629 26.1302C18.7997 25.4471 19.3749 24.4959 19.5912 23.4375H24.3736C24.7032 23.4371 25.0269 23.3497 25.312 23.1843C25.5971 23.0189 25.8336 22.7813 25.9976 22.4954C26.1616 22.2095 26.2473 21.8854 26.2461 21.5558C26.2449 21.2262 26.1569 20.9027 25.9908 20.618ZM14.9986 25.3125C14.4172 25.3123 13.8501 25.1319 13.3754 24.7961C12.9006 24.4604 12.5417 23.9857 12.3479 23.4375H17.6494C17.4556 23.9857 17.0966 24.4604 16.6219 24.7961C16.1472 25.1319 15.5801 25.3123 14.9986 25.3125ZM5.62364 21.5625C6.52599 20.0109 7.49864 16.4156 7.49864 12.1875C7.49864 10.1984 8.28882 8.29072 9.69534 6.8842C11.1019 5.47768 13.0095 4.6875 14.9986 4.6875C16.9878 4.6875 18.8954 5.47768 20.3019 6.8842C21.7085 8.29072 22.4986 10.1984 22.4986 12.1875C22.4986 16.4121 23.469 20.0074 24.3736 21.5625H5.62364Z" fill="#3F3F3F"/>
</svg>
