<svg width="50" height="50" viewBox="0 0 50 50" fill="none" xmlns="http://www.w3.org/2000/svg">
<path d="M30.8993 32.7484H37.5493C37.7493 32.7484 37.9493 32.5984 37.9493 32.3984L39.1493 28.0984C39.2493 27.7984 38.9993 27.5484 38.7493 27.5484H31.6993H28.4993L28.3493 26.8984C28.2493 26.5984 27.9993 26.3984 27.6993 26.3984H26.5993C26.2493 26.3984 25.8993 26.6984 25.8993 27.0484C25.8493 27.4484 26.1993 27.7484 26.5493 27.7484H27.1993L27.7993 29.7484L29.2993 34.8984C29.3993 35.1984 29.6493 35.3984 29.9493 35.3984H37.7493C38.0993 35.3984 38.4493 35.0984 38.4493 34.7484C38.4993 34.3484 38.1493 34.0484 37.7993 34.0484H30.8993C30.5993 34.0484 30.3493 33.8484 30.2493 33.5984V33.5484C30.1493 33.1484 30.4493 32.7484 30.8993 32.7484Z" fill="#3F3F3F"/>
<path d="M31.0492 38.9988C31.6567 38.9988 32.1492 38.5063 32.1492 37.8988C32.1492 37.2913 31.6567 36.7988 31.0492 36.7988C30.4417 36.7988 29.9492 37.2913 29.9492 37.8988C29.9492 38.5063 30.4417 38.9988 31.0492 38.9988Z" fill="#3F3F3F"/>
<path d="M36.4516 38.9988C37.0591 38.9988 37.5516 38.5063 37.5516 37.8988C37.5516 37.2913 37.0591 36.7988 36.4516 36.7988C35.8441 36.7988 35.3516 37.2913 35.3516 37.8988C35.3516 38.5063 35.8441 38.9988 36.4516 38.9988Z" fill="#3F3F3F"/>
<path d="M30.5508 9.94922H11.0508C9.95078 9.94922 9.80078 11.0992 9.80078 11.1992V35.9492C9.85078 36.5992 10.2508 37.5992 12.0008 37.5992H26.1508C27.7508 37.5992 27.6508 36.5492 27.5508 36.1492L27.5008 35.9992L27.3508 35.4492L27.2508 35.1492L25.7008 29.9992C25.6008 29.6492 25.2008 29.4992 25.2008 29.4992C24.9508 29.3492 24.7008 29.1992 24.5508 28.9992C24.0508 28.4492 23.8008 27.6992 23.8508 26.9992C23.9508 25.5992 25.1508 24.4992 26.5508 24.4992H27.6508C28.4008 24.4992 29.0508 24.7992 29.5508 25.2992C29.5508 25.2992 29.5508 25.2992 29.6008 25.3492C29.7008 25.4492 29.9008 25.5992 30.2008 25.5992H30.9008C31.5508 25.5992 31.6008 24.8992 31.6508 24.6992L31.7008 19.4492V11.4992C31.7508 10.2992 30.9008 9.94922 30.5508 9.94922ZM16.2008 33.5492C16.2008 34.1992 15.7008 34.6992 15.0508 34.6992H13.9008C13.2508 34.6992 12.7508 34.1992 12.7508 33.5492V32.3992C12.7508 31.7492 13.2508 31.2492 13.9008 31.2492H15.0508C15.7008 31.2492 16.2008 31.7492 16.2008 32.3992V33.5492ZM16.2008 27.5992C16.2008 28.2492 15.7008 28.7492 15.0508 28.7492H13.9008C13.2508 28.7492 12.7508 28.2492 12.7508 27.5992V26.4492C12.7508 25.7992 13.2508 25.2992 13.9008 25.2992H15.0508C15.7008 25.2992 16.2008 25.7992 16.2008 26.4492V27.5992ZM16.2008 21.7492C16.2008 22.3992 15.7008 22.8992 15.0508 22.8992H13.9008C13.2508 22.8992 12.7508 22.3992 12.7508 21.7492V20.5992C12.7508 19.9492 13.2508 19.4492 13.9008 19.4492H15.0508C15.7008 19.4492 16.2008 19.9492 16.2008 20.5992V21.7492ZM16.2008 15.8492C16.2008 16.4992 15.7008 16.9992 15.0508 16.9992H13.9008C13.2508 16.9992 12.7508 16.4992 12.7508 15.8492V14.6992C12.7508 14.0492 13.2508 13.5492 13.9008 13.5492H15.0508C15.7008 13.5492 16.2008 14.0492 16.2008 14.6992V15.8492ZM22.5508 33.5492C22.5508 34.1992 22.0508 34.6992 21.4008 34.6992H20.2508C19.6008 34.6992 19.1008 34.1992 19.1008 33.5492V32.3992C19.1008 31.7492 19.6008 31.2492 20.2508 31.2492H21.4008C22.0508 31.2492 22.5508 31.7492 22.5508 32.3992V33.5492ZM22.5508 27.5992C22.5508 28.2492 22.0508 28.7492 21.4008 28.7492H20.2508C19.6008 28.7492 19.1008 28.2492 19.1008 27.5992V26.4492C19.1008 25.7992 19.6008 25.2992 20.2508 25.2992H21.4008C22.0508 25.2992 22.5508 25.7992 22.5508 26.4492V27.5992ZM22.5508 21.7492C22.5508 22.3992 22.0508 22.8992 21.4008 22.8992H20.2508C19.6008 22.8992 19.1008 22.3992 19.1008 21.7492V20.5992C19.1008 19.9492 19.6008 19.4492 20.2508 19.4492H21.4008C22.0508 19.4492 22.5508 19.9492 22.5508 20.5992V21.7492ZM22.5508 15.8492C22.5508 16.4992 22.0508 16.9992 21.4008 16.9992H20.2508C19.6008 16.9992 19.1008 16.4992 19.1008 15.8492V14.6992C19.1008 14.0492 19.6008 13.5492 20.2508 13.5492H21.4008C22.0508 13.5492 22.5508 14.0492 22.5508 14.6992V15.8492ZM28.9008 21.7492C28.9008 22.3992 28.4008 22.8992 27.7508 22.8992H26.6008C25.9508 22.8992 25.4508 22.3992 25.4508 21.7492V20.5992C25.4508 19.9492 25.9508 19.4492 26.6008 19.4492H27.7508C28.4008 19.4492 28.9008 19.9492 28.9008 20.5992V21.7492ZM28.9008 15.8492C28.9008 16.4992 28.4008 16.9992 27.7508 16.9992H26.6008C25.9508 16.9992 25.4508 16.4992 25.4508 15.8492V14.6992C25.4508 14.0492 25.9508 13.5492 26.6008 13.5492H27.7508C28.4008 13.5492 28.9008 14.0492 28.9008 14.6992V15.8492Z" fill="#3F3F3F"/>
</svg>
