<svg width="50" height="50" viewBox="0 0 50 50" fill="none" xmlns="http://www.w3.org/2000/svg">
<path d="M29.35 39.45C29.9575 39.45 30.45 38.9575 30.45 38.35C30.45 37.7425 29.9575 37.25 29.35 37.25C28.7425 37.25 28.25 37.7425 28.25 38.35C28.25 38.9575 28.7425 39.45 29.35 39.45Z" fill="#3F3F3F"/>
<path d="M34.7523 39.45C35.3599 39.45 35.8523 38.9575 35.8523 38.35C35.8523 37.7425 35.3599 37.25 34.7523 37.25C34.1448 37.25 33.6523 37.7425 33.6523 38.35C33.6523 38.9575 34.1448 39.45 34.7523 39.45Z" fill="#3F3F3F"/>
<path d="M18.6516 21.55C17.9016 20.35 17.4516 18.95 17.4516 17.4C17.4516 14.8 18.5516 12.6 20.3016 11.3C19.6516 10.2 18.5516 9.5 17.0016 9.5C14.4516 9.5 13.0516 11.55 13.0516 13.9C13.0516 15.2 13.5016 16.25 14.3516 17.05C14.8516 17.5 15.2516 18.05 15.2516 18.7C15.2516 19.3 15.0516 19.85 13.6016 20.45C11.5516 21.4 9.65156 22.55 9.60156 24.5C9.60156 25.8 10.4516 26.7 11.6516 26.7H13.5516C13.8516 26.7 14.1516 26.5 14.3016 26.25C15.2516 24.6 16.9516 23.5 18.4016 22.8C18.7516 22.55 18.9516 21.95 18.6516 21.55Z" fill="#3F3F3F"/>
<path d="M29.2001 33.1996H35.8501C36.0501 33.1996 36.2501 33.0496 36.2501 32.8496L37.4501 28.5496C37.5501 28.2496 37.3001 27.9996 37.0501 27.9996H30.0001H26.8001L26.6501 27.3496C26.5501 27.0496 26.3001 26.8496 26.0001 26.8496H24.9001C24.5501 26.8496 24.2001 27.1496 24.2001 27.4996C24.1501 27.8996 24.5001 28.1996 24.8501 28.1996H25.5001L26.1001 30.1996L27.6001 35.3496C27.7001 35.6496 27.9501 35.8496 28.2501 35.8496H36.0501C36.4001 35.8496 36.7501 35.5496 36.7501 35.1996C36.8001 34.7996 36.4501 34.4996 36.1001 34.4996H29.2001C28.9001 34.4996 28.6501 34.2996 28.5501 34.0496V33.9996C28.4501 33.5996 28.7501 33.1996 29.2001 33.1996Z" fill="#3F3F3F"/>
<path d="M24.2016 30.8008L24.0016 30.0508C23.5516 29.9008 23.2016 29.6508 22.9016 29.3008C22.4516 28.7508 22.2016 28.1008 22.2516 27.4008C22.3016 26.0008 23.5516 24.9008 24.9516 24.9008H26.0016C26.9016 24.9008 27.7016 25.3508 28.2016 26.0508H30.0016H31.0516C30.2516 25.5008 29.3016 25.0508 28.3516 24.6508C26.7516 24.0008 26.5516 23.3508 26.5516 22.7008C26.5516 22.0508 27.0016 21.4008 27.5016 20.9008C28.4516 20.0508 28.9516 18.8508 28.9516 17.4008C28.9516 14.8008 27.3516 12.5508 24.5516 12.5508C21.7516 12.5508 20.1516 14.8008 20.1516 17.4008C20.1516 18.8008 20.7016 20.0008 21.6016 20.9008C22.1516 21.4008 22.5516 22.0508 22.5516 22.7008C22.5516 23.3508 22.3016 24.0008 20.7516 24.6508C18.3516 25.6008 16.1516 26.7508 16.1016 28.9008C16.1016 30.3008 17.1016 31.5508 18.4516 31.5508H24.3516L24.2016 30.8008Z" fill="#3F3F3F"/>
<path d="M31.55 17.4C31.55 18.95 31.15 20.35 30.35 21.55C30.05 22 30.2 22.55 30.7 22.85C32.1 23.5 33.7 24.5 34.65 26.05H37.05C37.55 26.05 38 26.2 38.4 26.5C39.05 26.15 39.45 25.45 39.45 24.55C39.4 22.6 37.5 21.4 35.45 20.45C34 19.85 33.8 19.25 33.8 18.7C33.8 18.1 34.2 17.5 34.7 17.05C35.55 16.25 36 15.2 36 13.9C36 11.5 34.6 9.5 32.05 9.5C30.5 9.5 29.4 10.2 28.75 11.3C30.45 12.6 31.55 14.75 31.55 17.4Z" fill="#3F3F3F"/>
</svg>
