<svg width="24" height="24" viewBox="0 0 24 24" fill="none" xmlns="http://www.w3.org/2000/svg">
<path d="M3.96896 14.469L11.469 6.96896C11.5386 6.89923 11.6213 6.84391 11.7124 6.80616C11.8034 6.76842 11.901 6.749 11.9996 6.749C12.0981 6.749 12.1957 6.76842 12.2868 6.80616C12.3778 6.84391 12.4606 6.89923 12.5302 6.96896L20.0302 14.469C20.1709 14.6097 20.25 14.8006 20.25 14.9996C20.25 15.1986 20.1709 15.3895 20.0302 15.5302C19.8895 15.6709 19.6986 15.75 19.4996 15.75C19.3006 15.75 19.1097 15.6709 18.969 15.5302L11.9996 8.5599L5.03021 15.5302C4.96052 15.5999 4.8778 15.6552 4.78675 15.6929C4.69571 15.7306 4.59813 15.75 4.49958 15.75C4.40104 15.75 4.30345 15.7306 4.21241 15.6929C4.12136 15.6552 4.03864 15.5999 3.96896 15.5302C3.89927 15.4605 3.844 15.3778 3.80629 15.2868C3.76858 15.1957 3.74916 15.0981 3.74916 14.9996C3.74916 14.901 3.76858 14.8035 3.80629 14.7124C3.844 14.6214 3.89927 14.5386 3.96896 14.469Z" fill="black"/>
</svg>
