<svg width="20" height="20" viewBox="0 0 20 20" fill="none" xmlns="http://www.w3.org/2000/svg">
<path d="M15.625 12.5H3.125C2.4375 12.5 1.875 13.0625 1.875 13.75C1.875 14.4375 2.4375 15 3.125 15C2.4375 15 1.875 15.5625 1.875 16.25C1.875 16.9375 2.4375 17.5 3.125 17.5H15.625C17 17.5 18.125 16.375 18.125 15C18.125 13.625 17 12.5 15.625 12.5Z" stroke="#A10404" stroke-width="0.8" stroke-miterlimit="10" stroke-linecap="round" stroke-linejoin="round"/>
<path d="M15.625 14.375V15H3.125" stroke="#A10404" stroke-width="0.8" stroke-miterlimit="10" stroke-linecap="round" stroke-linejoin="round"/>
<path d="M15.625 2.5H3.125C2.4375 2.5 1.875 3.0625 1.875 3.75C1.875 4.4375 2.4375 5 3.125 5C2.4375 5 1.875 5.5625 1.875 6.25C1.875 6.9375 2.4375 7.5 3.125 7.5H15.625C17 7.5 18.125 6.375 18.125 5C18.125 3.625 17 2.5 15.625 2.5Z" stroke="#A10404" stroke-width="0.8" stroke-miterlimit="10" stroke-linecap="round" stroke-linejoin="round"/>
<path d="M15.625 4.375V5H3.125" stroke="#A10404" stroke-width="0.8" stroke-miterlimit="10" stroke-linecap="round" stroke-linejoin="round"/>
<path d="M4.375 7.5H16.875C17.5625 7.5 18.125 8.0625 18.125 8.75C18.125 9.4375 17.5625 10 16.875 10C17.5625 10 18.125 10.5625 18.125 11.25C18.125 11.9375 17.5625 12.5 16.875 12.5H4.375C3 12.5 1.875 11.375 1.875 10C1.875 8.625 3 7.5 4.375 7.5Z" stroke="#A10404" stroke-width="0.8" stroke-miterlimit="10" stroke-linecap="round" stroke-linejoin="round"/>
<path d="M4.375 9.375V10H16.875" stroke="#A10404" stroke-width="0.8" stroke-miterlimit="10" stroke-linecap="round" stroke-linejoin="round"/>
</svg>
