<svg width="20" height="20" viewBox="0 0 20 20" fill="none" xmlns="http://www.w3.org/2000/svg">
<g clip-path="url(#clip0_699_7401)">
<path d="M16.7729 15.3828C16.7705 15.3761 16.7676 15.3696 16.7643 15.3633L13.2111 7.79609L14.8127 5.28203C14.8158 5.27752 14.8187 5.27283 14.8213 5.26797C14.9378 5.07373 14.9993 4.85149 14.9993 4.625C14.9993 4.3985 14.9378 4.17627 14.8213 3.98203C14.8143 3.96953 14.8057 3.95703 14.7979 3.94531L13.1244 1.55469V-0.375C13.1244 -0.54076 13.0586 -0.699731 12.9414 -0.816942C12.8241 -0.934152 12.6652 -1 12.4994 -1C12.3337 -1 12.1747 -0.934152 12.0575 -0.816942C11.9403 -0.699731 11.8744 -0.54076 11.8744 -0.375V1.53281L11.4635 2.04688C11.2878 2.26643 11.065 2.44366 10.8116 2.56546C10.5582 2.68725 10.2806 2.75049 9.99942 2.75049C9.71824 2.75049 9.44066 2.68725 9.18724 2.56546C8.93381 2.44366 8.71102 2.26643 8.53535 2.04688L8.12442 1.53281V-0.375C8.12442 -0.54076 8.05857 -0.699731 7.94136 -0.816942C7.82415 -0.934152 7.66518 -1 7.49942 -1C7.33366 -1 7.17468 -0.934152 7.05747 -0.816942C6.94026 -0.699731 6.87442 -0.54076 6.87442 -0.375V1.55469L5.20098 3.94531C5.19317 3.95703 5.18457 3.96953 5.17754 3.98203C5.06104 4.17627 4.9995 4.3985 4.9995 4.625C4.9995 4.85149 5.06104 5.07373 5.17754 5.26797C5.18012 5.27283 5.18299 5.27752 5.18613 5.28203L6.7877 7.79609L3.23457 15.3633C3.23124 15.3696 3.22837 15.3761 3.22598 15.3828C3.14456 15.5729 3.11156 15.7802 3.12995 15.9862C3.14834 16.1921 3.21754 16.3903 3.33135 16.563C3.44516 16.7356 3.60002 16.8773 3.78206 16.9754C3.9641 17.0735 4.16763 17.1249 4.37442 17.125H15.6244C15.8313 17.125 16.0349 17.0737 16.217 16.9757C16.3992 16.8777 16.5541 16.736 16.668 16.5633C16.7819 16.3906 16.8512 16.1924 16.8696 15.9864C16.8881 15.7803 16.8543 15.573 16.7729 15.3828ZM6.24942 4.625L7.53301 2.79453L7.55879 2.82734C7.85155 3.19345 8.22292 3.48901 8.64541 3.69211C9.06789 3.89522 9.53065 4.00068 9.99942 4.00068C10.4682 4.00068 10.9309 3.89522 11.3534 3.69211C11.7759 3.48901 12.1473 3.19345 12.44 2.82734L12.4658 2.79453L13.7494 4.625L12.1572 7.125H7.84238L6.24942 4.625ZM4.37442 15.875L7.89551 8.375H12.1018L15.6244 15.875H4.37442Z" fill="#A10404"/>
</g>
<defs>
<clipPath id="clip0_699_7401">
<rect width="20" height="20" fill="white"/>
</clipPath>
</defs>
</svg>
