<svg width="20" height="20" viewBox="0 0 20 20" fill="none" xmlns="http://www.w3.org/2000/svg">
<path d="M18.3846 14.0624L15.5533 11.2304L12.7049 1.83276C12.6239 1.56516 12.4782 1.32166 12.2807 1.12382C12.0832 0.925988 11.8399 0.779924 11.5724 0.698569C11.3049 0.617215 11.0215 0.603082 10.7473 0.657422C10.473 0.711762 10.2164 0.832898 10.0002 1.0101C9.78396 0.832898 9.52736 0.711762 9.25312 0.657422C8.97888 0.603082 8.69547 0.617215 8.42799 0.698569C8.16052 0.779924 7.91724 0.925988 7.7197 1.12382C7.52216 1.32166 7.37647 1.56516 7.29552 1.83276L4.44708 11.2312L1.61583 14.0624C1.38158 14.2968 1.25 14.6147 1.25 14.946C1.25 15.2774 1.38158 15.5952 1.61583 15.8296L4.16973 18.3835C4.28581 18.4996 4.42362 18.5917 4.5753 18.6546C4.72697 18.7174 4.88954 18.7498 5.05372 18.7498C5.21789 18.7498 5.38046 18.7174 5.53214 18.6546C5.68381 18.5917 5.82163 18.4996 5.9377 18.3835L9.70958 14.6093C9.81414 14.5045 9.91125 14.3925 10.0002 14.2742C10.0892 14.3925 10.1863 14.5045 10.2908 14.6093L14.0627 18.3843C14.1788 18.5004 14.3166 18.5925 14.4683 18.6554C14.6199 18.7182 14.7825 18.7505 14.9467 18.7505C15.1109 18.7505 15.2734 18.7182 15.4251 18.6554C15.5768 18.5925 15.7146 18.5004 15.8307 18.3843L18.3846 15.8304C18.5007 15.7143 18.5928 15.5765 18.6556 15.4248C18.7185 15.2732 18.7508 15.1106 18.7508 14.9464C18.7508 14.7823 18.7185 14.6197 18.6556 14.468C18.5928 14.3163 18.5007 14.1785 18.3846 14.0624ZM5.05333 17.4999L2.5002 14.9468L3.49161 13.9554L6.04551 16.5093L5.05333 17.4999ZM9.3752 12.4023C9.37645 12.6488 9.32876 12.8932 9.23488 13.1212C9.14101 13.3491 9.00282 13.5562 8.82833 13.7304L6.92833 15.6249L4.3752 13.0718L5.44161 12.0046C5.51438 11.9318 5.56806 11.8422 5.59786 11.7437L8.48848 2.19526C8.5178 2.089 8.58497 1.99715 8.67733 1.93699C8.76969 1.87684 8.88086 1.85254 8.9899 1.86868C9.09893 1.88482 9.1983 1.94028 9.26927 2.02461C9.34024 2.10894 9.37792 2.21632 9.3752 2.32651V12.4023ZM11.1721 13.7304C10.9976 13.5562 10.8594 13.3491 10.7655 13.1212C10.6717 12.8932 10.624 12.6488 10.6252 12.4023V2.32416C10.6252 2.21592 10.6641 2.11128 10.7348 2.02932C10.8056 1.94736 10.9033 1.89352 11.0104 1.87762C11.1175 1.86171 11.2267 1.8848 11.3182 1.94267C11.4097 2.00054 11.4773 2.08935 11.5088 2.19291L14.3994 11.7413C14.4292 11.8399 14.4829 11.9295 14.5557 12.0023L15.6877 13.1343L13.0783 15.6343L11.1721 13.7304ZM14.9471 17.4999L13.9658 16.5179L16.5744 14.0179L17.5002 14.9468L14.9471 17.4999Z" fill="#A10404"/>
</svg>
