<svg width="28" height="28" viewBox="0 0 28 28" fill="none" xmlns="http://www.w3.org/2000/svg">
<path d="M24.5 13.708C24.5 13.9401 24.4078 14.1626 24.2437 14.3267C24.0796 14.4908 23.8571 14.583 23.625 14.583H4.375C4.14294 14.583 3.92038 14.4908 3.75628 14.3267C3.59219 14.1626 3.5 13.9401 3.5 13.708C3.5 13.4759 3.59219 13.2534 3.75628 13.0893C3.92038 12.9252 4.14294 12.833 4.375 12.833H23.625C23.8571 12.833 24.0796 12.9252 24.2437 13.0893C24.4078 13.2534 24.5 13.4759 24.5 13.708ZM4.375 7.58301H23.625C23.8571 7.58301 24.0796 7.49082 24.2437 7.32673C24.4078 7.16263 24.5 6.94007 24.5 6.70801C24.5 6.47594 24.4078 6.25338 24.2437 6.08929C24.0796 5.9252 23.8571 5.83301 23.625 5.83301H4.375C4.14294 5.83301 3.92038 5.9252 3.75628 6.08929C3.59219 6.25338 3.5 6.47594 3.5 6.70801C3.5 6.94007 3.59219 7.16263 3.75628 7.32673C3.92038 7.49082 4.14294 7.58301 4.375 7.58301ZM23.625 19.833H4.375C4.14294 19.833 3.92038 19.9252 3.75628 20.0893C3.59219 20.2534 3.5 20.4759 3.5 20.708C3.5 20.9401 3.59219 21.1626 3.75628 21.3267C3.92038 21.4908 4.14294 21.583 4.375 21.583H23.625C23.8571 21.583 24.0796 21.4908 24.2437 21.3267C24.4078 21.1626 24.5 20.9401 24.5 20.708C24.5 20.4759 24.4078 20.2534 24.2437 20.0893C24.0796 19.9252 23.8571 19.833 23.625 19.833Z" fill="#3F3F3F"/>
</svg>
