<svg width="29" height="29" viewBox="0 0 29 29" fill="none" xmlns="http://www.w3.org/2000/svg">
<path d="M25.4855 24.4125L19.9886 18.9167C21.5818 17.0039 22.3763 14.5505 22.2067 12.0669C22.0372 9.58323 20.9166 7.26058 19.0782 5.58209C17.2398 3.9036 14.825 2.99849 12.3362 3.05505C9.84746 3.11161 7.47631 4.12549 5.71603 5.88577C3.95575 7.64604 2.94187 10.0172 2.88531 12.506C2.82875 14.9947 3.73386 17.4095 5.41235 19.2479C7.09084 21.0864 9.41349 22.2069 11.8971 22.3765C14.3807 22.546 16.8341 21.7516 18.7469 20.1583L24.2428 25.6553C24.3244 25.7369 24.4213 25.8016 24.5279 25.8458C24.6345 25.8899 24.7488 25.9127 24.8642 25.9127C24.9796 25.9127 25.0938 25.8899 25.2005 25.8458C25.3071 25.8016 25.4039 25.7369 25.4855 25.6553C25.5672 25.5737 25.6319 25.4768 25.676 25.3702C25.7202 25.2636 25.7429 25.1493 25.7429 25.0339C25.7429 24.9185 25.7202 24.8042 25.676 24.6976C25.6319 24.591 25.5672 24.4941 25.4855 24.4125ZM4.66365 12.7379C4.66365 11.1746 5.12724 9.6463 5.9958 8.3464C6.86437 7.0465 8.09889 6.03336 9.54325 5.43508C10.9876 4.83681 12.577 4.68027 14.1103 4.98527C15.6436 5.29027 17.0521 6.0431 18.1576 7.14857C19.263 8.25404 20.0159 9.6625 20.3209 11.1958C20.6259 12.7292 20.4693 14.3185 19.871 15.7629C19.2728 17.2072 18.2596 18.4418 16.9597 19.3103C15.6598 20.1789 14.1316 20.6425 12.5682 20.6425C10.4725 20.6402 8.46329 19.8066 6.9814 18.3247C5.49951 16.8428 4.66597 14.8336 4.66365 12.7379Z" fill="#8E8989"/>
</svg>
