<svg width="27" height="27" viewBox="0 0 27 27" fill="none" xmlns="http://www.w3.org/2000/svg">
<path d="M23.8577 22.8526L18.712 17.7079C20.2034 15.9173 20.9471 13.6207 20.7884 11.2957C20.6297 8.97081 19.5807 6.79657 17.8598 5.22533C16.1388 3.65409 13.8783 2.80681 11.5486 2.85976C9.21885 2.91271 6.99921 3.8618 5.3514 5.50961C3.7036 7.15741 2.75451 9.37705 2.70156 11.7068C2.64861 14.0365 3.49589 16.297 5.06713 18.018C6.63837 19.7389 8.81261 20.7879 11.1375 20.9466C13.4625 21.1054 15.7591 20.3616 17.5497 18.8702L22.6944 24.0159C22.7707 24.0923 22.8614 24.1529 22.9612 24.1942C23.061 24.2356 23.168 24.2569 23.276 24.2569C23.3841 24.2569 23.491 24.2356 23.5908 24.1942C23.6907 24.1529 23.7813 24.0923 23.8577 24.0159C23.9341 23.9395 23.9947 23.8489 24.036 23.7491C24.0774 23.6492 24.0987 23.5423 24.0987 23.4342C24.0987 23.3262 24.0774 23.2192 24.036 23.1194C23.9947 23.0196 23.9341 22.929 23.8577 22.8526ZM4.36626 11.9239C4.36626 10.4605 4.80023 9.02985 5.6133 7.81301C6.42637 6.59618 7.58201 5.64777 8.93408 5.08772C10.2862 4.52767 11.7739 4.38113 13.2093 4.66665C14.6447 4.95216 15.9631 5.65689 16.998 6.69172C18.0328 7.72656 18.7375 9.04502 19.023 10.4804C19.3086 11.9157 19.162 13.4035 18.602 14.7556C18.0419 16.1077 17.0935 17.2633 15.8767 18.0764C14.6598 18.8895 13.2292 19.3234 11.7657 19.3234C9.80395 19.3212 7.92312 18.541 6.53592 17.1538C5.14872 15.7666 4.36844 13.8857 4.36626 11.9239Z" fill="#716B6B"/>
</svg>
