<svg width="20" height="20" viewBox="0 0 20 20" fill="none" xmlns="http://www.w3.org/2000/svg">
<g clip-path="url(#clip0_1468_10797)">
<path d="M4.84046 5.48438H4.19531V6.12953H4.84046V5.48438Z" fill="#A10404"/>
<path d="M5.48499 6.77344H4.83984V7.41859H5.48499V6.77344Z" fill="#A10404"/>
<path d="M6.12953 8.06445H5.48438V8.7096H6.12953V8.06445Z" fill="#A10404"/>
<path d="M6.77406 9.35547H6.12891V10.0006H6.77406V9.35547Z" fill="#A10404"/>
<path d="M7.41859 10.6445H6.77344V11.2897H7.41859V10.6445Z" fill="#A10404"/>
<path d="M8.38734 11.9355H7.74219V12.5807H8.38734V11.9355Z" fill="#A10404"/>
<path d="M15.8053 5.48438H15.1602V6.12953H15.8053V5.48438Z" fill="#A10404"/>
<path d="M15.1608 6.77344H14.5156V7.41859H15.1608V6.77344Z" fill="#A10404"/>
<path d="M14.5162 8.06445H13.8711V8.7096H14.5162V8.06445Z" fill="#A10404"/>
<path d="M13.8717 9.35547H13.2266V10.0006H13.8717V9.35547Z" fill="#A10404"/>
<path d="M13.2272 10.6445H12.582V11.2897H13.2272V10.6445Z" fill="#A10404"/>
<path d="M12.2584 11.9355H11.6133V12.5807H12.2584V11.9355Z" fill="#A10404"/>
<path d="M9.99898 14.5156C9.46544 14.5156 9.03125 14.9498 9.03125 15.4834C9.03125 16.0169 9.46544 16.4511 9.99898 16.4511C10.5325 16.4511 10.9667 16.0169 10.9667 15.4834C10.9667 14.9498 10.5325 14.5156 9.99898 14.5156ZM9.99898 15.8059C9.82091 15.8059 9.6764 15.6614 9.6764 15.4834C9.6764 15.3053 9.82091 15.1608 9.99898 15.1608C10.177 15.1608 10.3216 15.3053 10.3216 15.4834C10.3216 15.6614 10.177 15.8059 9.99898 15.8059Z" fill="#A10404"/>
<path d="M9.99795 12.0254L8.42314 14.2302C8.18734 14.5602 8.0625 14.9492 8.0625 15.3557V15.4837C8.0625 16.5511 8.93055 17.4192 9.99795 17.4192C11.0654 17.4192 11.9334 16.5511 11.9334 15.4837V15.3557C11.9334 14.9492 11.8086 14.5602 11.5728 14.2308L9.99795 12.0254ZM11.2883 15.4837C11.2883 16.1953 10.7096 16.774 9.99795 16.774C9.28635 16.774 8.70765 16.1953 8.70765 15.4837V15.3557C8.70765 15.0847 8.79088 14.8253 8.94797 14.6057L9.99795 13.1357L11.0479 14.606C11.205 14.8253 11.2883 15.0847 11.2883 15.3557V15.4837Z" fill="#A10404"/>
<path d="M18.5629 4.85283L15.4004 4.00961C15.2594 3.97187 15.161 3.84381 15.161 3.69801V2.51673C15.161 1.84094 14.7346 1.23192 14.0995 1.00127L11.8276 0.175158C11.5085 0.0590313 11.175 0 10.8356 0H9.16405C8.8247 0 8.49115 0.0590313 8.17213 0.174836L5.90023 1.00095C5.26508 1.23159 4.83863 1.84094 4.83863 2.51673V3.69801C4.83863 3.84381 4.74025 3.97187 4.59928 4.00961L1.43675 4.85283C0.590958 5.07831 0 5.84733 0 6.72312V7.71246C0 7.99245 0.0593539 8.26374 0.176126 8.5189L3.41607 15.5881C3.54156 15.861 3.71671 16.1026 3.93703 16.3062L7.28956 19.4013C7.70794 19.7871 8.25213 19.9997 8.82115 19.9997H11.1789C11.7479 19.9997 12.2917 19.7871 12.7104 19.401L16.063 16.3062C16.2836 16.1026 16.4588 15.861 16.5839 15.5881L19.8239 8.5189C19.9406 8.26374 20 7.99245 20 7.71246V6.72312C19.9997 5.84733 19.4087 5.07831 18.5629 4.85283ZM19.3548 7.71246H19.3545C19.3545 7.89891 19.3152 8.07987 19.2371 8.24987L15.9972 15.3191C15.9078 15.5139 15.7826 15.6868 15.6249 15.8323L12.2727 18.9268C11.9737 19.2026 11.585 19.3545 11.1785 19.3545H8.82083C8.41438 19.3545 8.02568 19.2026 7.72697 18.9271L4.37445 15.8323C4.21671 15.6868 4.09155 15.5143 4.00219 15.3191L0.762568 8.24987C0.684505 8.07987 0.645151 7.89891 0.645151 7.71246V6.72312C0.645151 6.13926 1.03902 5.62668 1.6032 5.47604L4.76573 4.63283C5.1883 4.51993 5.48378 4.13542 5.48378 3.69801V2.51673C5.48378 2.11126 5.73958 1.74578 6.12087 1.60739L8.39277 0.781278C8.64051 0.690957 8.90018 0.645151 9.16405 0.645151H10.8356C11.0995 0.645151 11.3592 0.690957 11.6072 0.780955L13.8791 1.60707C14.2601 1.74578 14.5159 2.11126 14.5159 2.51673V3.69801C14.5159 4.13542 14.8114 4.51993 15.2343 4.63251L18.3968 5.47572C18.961 5.62636 19.3548 6.13926 19.3548 6.7228V7.71246Z" fill="#A10404"/>
</g>
<defs>
<clipPath id="clip0_1468_10797">
<rect width="20" height="20" fill="white"/>
</clipPath>
</defs>
</svg>
