<svg width="20" height="20" viewBox="0 0 20 20" fill="none" xmlns="http://www.w3.org/2000/svg">
<g clip-path="url(#clip0_1468_10831)">
<path d="M19.9016 4.72452C19.8186 4.0829 19.8186 2.99872 19.9016 2.35716L19.9853 1.71038C20.0435 1.26012 19.923 0.832409 19.6458 0.506079C19.3686 0.17975 18.9733 0 18.5326 0H2.36806C1.92863 0 1.53205 0.179073 1.25129 0.504205C0.970482 0.829389 0.843894 1.25622 0.894812 1.70616L0.967451 2.34784C1.04065 2.99451 1.04065 4.08722 0.967451 4.73389L0.894812 5.37562C0.843894 5.82551 0.970532 6.25234 1.25129 6.57752C1.53205 6.90265 1.92868 7.08173 2.36806 7.08173H4.0278L0.49479 15.8778L0.0308683 17.0324C-0.0545512 17.2449 0.0433958 17.4886 0.249595 17.5767C0.300159 17.5983 0.352542 17.6085 0.404117 17.6085C0.562681 17.6085 0.713163 17.5116 0.777619 17.3512L1.08692 16.5815L1.46027 16.741L1.15097 17.5107C1.06555 17.7232 1.1635 17.9669 1.3697 18.055C1.42026 18.0766 1.47264 18.0868 1.52422 18.0868C1.68278 18.0868 1.83326 17.99 1.89772 17.8296L2.20702 17.0599L2.58037 17.2192L2.27107 17.989C2.18565 18.2015 2.2836 18.4452 2.4898 18.5333C2.54036 18.5549 2.59274 18.5651 2.64432 18.5651C2.80288 18.5651 2.95336 18.4682 3.01782 18.3078L3.32712 17.5381L3.70047 17.6976L3.39117 18.4673C3.30575 18.6798 3.4037 18.9235 3.6099 19.0116C3.66046 19.0332 3.71284 19.0434 3.76442 19.0434C3.92298 19.0434 4.07347 18.9465 4.13792 18.7862L4.44722 18.0165L4.82057 18.1758L4.51127 18.9456C4.42585 19.1581 4.5238 19.4018 4.73 19.4899C4.78056 19.5115 4.83295 19.5217 4.88452 19.5217C5.04308 19.5217 5.19357 19.4248 5.25802 19.2644L5.56732 18.4947L5.94067 18.6542L5.63137 19.4239C5.54595 19.6364 5.6439 19.8801 5.8501 19.9682C5.90066 19.9898 5.95305 20 6.00462 20C6.16319 20 6.31367 19.9031 6.37812 19.7428L6.84199 18.5884L10.141 10.3854L11.7357 14.3188L12.1995 15.473C12.2639 15.6335 12.4144 15.7303 12.573 15.7303C12.6245 15.7303 12.6769 15.7201 12.7275 15.6985C12.9337 15.6104 13.0316 15.3667 12.9462 15.1542L12.6369 14.3844L13.0102 14.225L13.3195 14.9947C13.3839 15.1551 13.5345 15.2519 13.693 15.2519C13.7446 15.2519 13.797 15.2417 13.8475 15.2201C14.0537 15.1321 14.1517 14.8884 14.0662 14.6758L13.7569 13.9061L14.1303 13.7467L14.4396 14.5164C14.504 14.6768 14.6545 14.7736 14.8131 14.7736C14.8647 14.7736 14.9171 14.7634 14.9676 14.7418C15.1738 14.6538 15.2718 14.4101 15.1863 14.1975L14.877 13.4278L15.2504 13.2683L15.5597 14.0381C15.6241 14.1985 15.7746 14.2953 15.9332 14.2953C15.9848 14.2953 16.0371 14.2851 16.0877 14.2635C16.2939 14.1754 16.3918 13.9317 16.3064 13.7192L15.9971 12.9495L16.3705 12.79L16.6798 13.5597C16.7442 13.7202 16.8947 13.817 17.0533 13.817C17.1049 13.817 17.1572 13.8068 17.2078 13.7852C17.414 13.6971 17.5119 13.4534 17.4265 13.2409L17.1172 12.4711L17.4906 12.3117L17.7999 13.0814C17.8643 13.2418 18.0148 13.3386 18.1734 13.3386C18.225 13.3386 18.2773 13.3284 18.3279 13.3068C18.5341 13.2188 18.632 12.9751 18.5466 12.7625L18.0828 11.6084L16.2591 7.08157H18.533C18.9737 7.08157 19.369 6.90182 19.6462 6.57549C19.9233 6.24916 20.0439 5.82145 19.9857 5.37119L19.9016 4.72452ZM1.80129 2.6059L1.90227 2.66026C2.01294 2.71988 2.14408 2.72337 2.25758 2.66984L2.97256 2.33258L3.68744 2.66984C3.79422 2.72025 3.91702 2.72025 4.02376 2.66984L4.73853 2.33263L5.45306 2.66984C5.55984 2.7202 5.68264 2.7203 5.78948 2.66984L6.50421 2.33263L7.21883 2.66984C7.32562 2.7203 7.44842 2.72025 7.55525 2.66984L8.26983 2.33263L8.98435 2.66984C9.09114 2.7202 9.21394 2.72025 9.32077 2.66984L10.0354 2.33263L10.7499 2.66984C10.8568 2.72025 10.9796 2.72025 11.0863 2.66984L11.8007 2.33268L12.5151 2.66984C12.6219 2.72025 12.7447 2.72025 12.8516 2.66984L13.5661 2.33263L14.2807 2.66984C14.3875 2.72025 14.5102 2.72025 14.6171 2.66984L15.3317 2.33263L16.0462 2.66984C16.1531 2.72025 16.2758 2.72025 16.3827 2.66984L17.0972 2.33263L17.8116 2.66984C17.8651 2.69505 17.9224 2.70765 17.9799 2.70765C18.0373 2.70765 18.0946 2.69505 18.1481 2.66984L18.8666 2.33076L19.0806 2.42693C19.0244 2.99159 19.0166 3.75256 19.0573 4.37153L19.0239 4.35653C18.9187 4.3092 18.7987 4.31034 18.6943 4.35965L17.9798 4.69687L17.2653 4.35965C17.1585 4.30925 17.0357 4.30925 16.9289 4.35965L16.2144 4.69687L15.4999 4.35965C15.393 4.30925 15.2703 4.30925 15.1634 4.35965L14.4489 4.69687L13.7343 4.35965C13.6275 4.30925 13.5047 4.30925 13.3979 4.35965L12.6833 4.69687L11.9689 4.35965C11.8621 4.30925 11.7392 4.30925 11.6325 4.35965L10.9181 4.69682L10.2036 4.35965C10.0967 4.30925 9.97397 4.30925 9.86714 4.35965L9.15251 4.69687L8.43799 4.35965C8.33115 4.3093 8.2084 4.30925 8.10156 4.35965L7.38699 4.69687L6.67237 4.35965C6.56558 4.3092 6.44278 4.3093 6.33599 4.35965L5.62132 4.69687L4.9068 4.35965C4.80001 4.3093 4.67721 4.30925 4.57042 4.35965L3.85565 4.69692L3.14077 4.35965C3.03398 4.30925 2.91124 4.30925 2.80445 4.35965L2.08715 4.69801L1.79513 4.56403C1.84013 3.97735 1.8421 3.20966 1.80129 2.6059ZM1.85504 1.05809C1.98031 0.912963 2.16257 0.833086 2.36811 0.833086H18.5326C18.7369 0.833086 18.9163 0.911818 19.0378 1.0548C19.1525 1.18988 19.2043 1.37041 19.187 1.56594L19.0238 1.49262C18.9185 1.44534 18.7986 1.44643 18.6941 1.49574L17.9797 1.83296L17.2652 1.49574C17.1583 1.44534 17.0356 1.44534 16.9288 1.49574L16.2142 1.83296L15.4997 1.49574C15.3929 1.44534 15.2701 1.44534 15.1633 1.49574L14.4487 1.83296L13.7341 1.49574C13.6273 1.44534 13.5046 1.44534 13.3977 1.49574L12.6831 1.83296L11.9687 1.49574C11.862 1.44534 11.739 1.44534 11.6323 1.49574L10.9179 1.8329L10.2034 1.49574C10.0966 1.44534 9.97382 1.44534 9.86698 1.49574L9.15236 1.83296L8.43784 1.49574C8.331 1.44534 8.20825 1.44534 8.10141 1.49574L7.38684 1.83296L6.67222 1.49574C6.56543 1.44529 6.44263 1.44539 6.33584 1.49574L5.62117 1.83296L4.90665 1.49574C4.79986 1.44534 4.67706 1.44539 4.57027 1.49574L3.8555 1.83301L3.14062 1.49574C3.03383 1.44534 2.91108 1.44534 2.8043 1.49574L2.10109 1.82744L1.69758 1.61009C1.67389 1.39957 1.72971 1.20326 1.85504 1.05809ZM4.90266 7.08162H5.56616C5.52459 7.15114 5.50317 7.23226 5.50615 7.31521L5.53494 8.12471L4.95933 8.67604C4.87326 8.75847 4.82628 8.87547 4.83057 8.99648L4.85936 9.80583L4.28371 10.3573C4.19768 10.4397 4.1507 10.5567 4.15499 10.6777L4.18374 11.4872L3.60808 12.0387C3.52205 12.1212 3.47507 12.2381 3.47937 12.3591L3.50811 13.1686L2.9325 13.72C2.84643 13.8024 2.79945 13.9194 2.80374 14.0404L2.83253 14.8499L2.25693 15.4012C2.17085 15.4837 2.12387 15.6007 2.12817 15.7216L2.14271 16.1305L1.39606 15.8117L4.90266 7.08162ZM13.7076 7.69783L14.2832 8.24937L14.2545 9.05892C14.2501 9.17993 14.2972 9.29688 14.3832 9.37931L14.9589 9.93069L14.9301 10.7401C14.9258 10.8612 14.9728 10.9781 15.0589 11.0605L15.6345 11.6119L15.6132 12.2114L15.3147 12.3388L15.3137 12.3392L14.1944 12.8172L13.8676 12.9567L13.8822 12.5478C13.8865 12.4268 13.8395 12.3099 13.7534 12.2274L13.1778 11.6761L13.2066 10.8666C13.2109 10.7456 13.1639 10.6287 13.0779 10.5462L12.5022 9.99485L12.5309 9.18535C12.5352 9.06433 12.4882 8.94743 12.4022 8.86501L11.8265 8.31347L11.8553 7.50392C11.8598 7.37827 11.8089 7.25726 11.717 7.17467L11.6136 7.08173H13.6022L13.58 7.35848C13.5698 7.48574 13.6168 7.61087 13.7076 7.69783ZM6.24987 17.8842L5.53075 17.5771L5.50943 16.9777L6.08504 16.4264C6.17112 16.3439 6.21809 16.227 6.2138 16.106L6.18501 15.2965L6.76062 14.7451C6.84669 14.6627 6.89367 14.5458 6.88938 14.4247L6.86063 13.6152L7.43629 13.0637C7.52232 12.9813 7.5693 12.8643 7.565 12.7433L7.53626 11.9338L8.11192 11.3823C8.19795 11.2999 8.24497 11.1829 8.24063 11.0619L8.21184 10.2525L8.78739 9.70122C8.87347 9.61879 8.92045 9.50184 8.91615 9.38082L8.88741 8.57132L9.46307 8.01979C9.5491 7.93736 9.59608 7.82041 9.59178 7.69939L9.56981 7.08167H10.5944L6.24987 17.8842ZM8.76108 7.08162L8.77734 7.53927L8.20168 8.09081C8.11566 8.17324 8.06868 8.29019 8.07297 8.41121L8.10172 9.22065L7.52616 9.77198C7.44008 9.85441 7.3931 9.97141 7.3974 10.0924L7.42619 10.9018L6.85053 11.4533C6.7645 11.5357 6.71753 11.6526 6.72182 11.7736L6.75056 12.5832L6.1749 13.1347C6.08888 13.2172 6.0419 13.3341 6.04619 13.4551L6.07494 14.2646L5.49933 14.816C5.41325 14.8984 5.36627 15.0154 5.37057 15.1364L5.39936 15.9458L4.8237 16.4972C4.73762 16.5797 4.69065 16.6966 4.69494 16.8176L4.70949 17.2265L3.26302 16.6089L2.96397 16.4812L2.94266 15.8817L3.51826 15.3304C3.60434 15.2479 3.65132 15.1309 3.64702 15.01L3.61823 14.2005L4.19384 13.6491C4.27992 13.5667 4.32689 13.4498 4.3226 13.3288L4.29386 12.5192L4.86952 11.9677C4.95554 11.8852 5.00252 11.7683 4.99823 11.6473L4.96948 10.8378L5.54514 10.2863C5.63117 10.2039 5.6782 10.0869 5.67385 9.96589L5.64506 9.1566L6.22067 8.60527C6.30675 8.52285 6.35372 8.40589 6.34943 8.28488L6.32018 7.46278L6.67964 7.08173L8.76108 7.08162ZM11.022 8.19391L11.0121 8.47343C11.0077 8.59444 11.0548 8.7114 11.1408 8.79382L11.7165 9.34536L11.6877 10.1549C11.6834 10.2759 11.7304 10.3929 11.8165 10.4753L12.3921 11.0267L12.3634 11.8361C12.359 11.9571 12.4061 12.0741 12.4921 12.1565L13.0677 12.7079L13.0464 13.3074L12.3263 13.6148L10.5772 9.30042L11.022 8.19391ZM17.1806 11.5421L16.4344 11.8607L16.4489 11.4518C16.4532 11.3308 16.4062 11.2139 16.3201 11.1315L15.7445 10.5801L15.7732 9.77063C15.7776 9.64961 15.7306 9.53266 15.6445 9.45023L15.0689 8.89885L15.0976 8.08935C15.102 7.96834 15.0549 7.85139 14.9689 7.76896L14.4016 7.22534L14.4131 7.08162H15.3835L17.1806 11.5421ZM19.0378 6.02676C18.9163 6.16975 18.7369 6.24848 18.5326 6.24848H15.6574H15.6537H2.36811C2.16251 6.24848 1.98031 6.16855 1.85498 6.02348C1.72971 5.87836 1.67379 5.68252 1.69758 5.47205L1.70198 5.43326L1.9251 5.53563C2.03103 5.58421 2.15211 5.58354 2.25753 5.53381L2.97251 5.19654L3.68739 5.53381C3.79417 5.58421 3.91697 5.58421 4.02371 5.53381L4.73848 5.19659L5.45301 5.53381C5.55979 5.58421 5.68259 5.58421 5.78943 5.53381L6.50416 5.19659L7.21878 5.53381C7.32557 5.58426 7.44837 5.58421 7.5552 5.53381L8.26978 5.19659L8.9843 5.53381C9.09109 5.58421 9.21389 5.58421 9.32072 5.53381L10.0353 5.19659L10.7499 5.53381C10.8567 5.58421 10.9796 5.58421 11.0863 5.53381L11.8007 5.19665L12.5151 5.53381C12.6218 5.58421 12.7447 5.58421 12.8515 5.53381L13.5661 5.19659L14.2807 5.53381C14.3874 5.58421 14.5102 5.58421 14.6171 5.53381L15.3317 5.19659L16.0462 5.53381C16.153 5.58421 16.2758 5.58421 16.3826 5.53381L17.0971 5.19659L17.8116 5.53381C17.865 5.55901 17.9224 5.57161 17.9798 5.57161C18.0372 5.57161 18.0946 5.55901 18.148 5.53381L18.8665 5.19472L19.1646 5.3286L19.1844 5.48142C19.2111 5.69007 19.1592 5.88378 19.0378 6.02676Z" fill="#A10404"/>
</g>
<defs>
<clipPath id="clip0_1468_10831">
<rect width="20" height="20" fill="white"/>
</clipPath>
</defs>
</svg>
