<svg width="15" height="15" viewBox="0 0 15 15" fill="none" xmlns="http://www.w3.org/2000/svg">
<path d="M14.6219 6.86489L11.6068 9.56185L12.5254 13.5951C12.5761 13.8141 12.563 14.0437 12.4879 14.255C12.4127 14.4662 12.2789 14.6497 12.1032 14.7821C11.9276 14.9145 11.718 14.9901 11.5009 14.9991C11.2839 15.0081 11.0691 14.9503 10.8838 14.8328L7.50013 12.6742L4.11446 14.8328C3.92915 14.9496 3.71465 15.0069 3.49799 14.9975C3.28132 14.9882 3.07218 14.9126 2.89688 14.7802C2.72158 14.6479 2.58798 14.4648 2.51288 14.2539C2.43779 14.043 2.42457 13.8138 2.47489 13.5951L3.39686 9.56185L0.381709 6.86489C0.217751 6.718 0.0991733 6.52429 0.040785 6.30796C-0.0176033 6.09163 -0.0132144 5.86226 0.0534034 5.6485C0.120021 5.43473 0.245916 5.24605 0.415364 5.10602C0.584813 4.96598 0.790306 4.8808 1.00618 4.8611L4.95937 4.53049L6.48436 0.704878C6.56691 0.496384 6.7074 0.318044 6.88797 0.19253C7.06855 0.0670169 7.28105 0 7.49846 0C7.71587 0 7.92837 0.0670169 8.10894 0.19253C8.28952 0.318044 8.43001 0.496384 8.51255 0.704878L10.0369 4.53049L13.9901 4.8611C14.2064 4.88006 14.4125 4.96477 14.5825 5.10462C14.7526 5.24446 14.8791 5.43321 14.9461 5.64724C15.0131 5.86126 15.0177 6.09103 14.9594 6.30775C14.901 6.52448 14.7822 6.71853 14.6179 6.86559L14.6219 6.86489Z" fill="#ECC824"/>
</svg>
