<svg width="20" height="20" viewBox="0 0 20 20" fill="none" xmlns="http://www.w3.org/2000/svg">
<g clip-path="url(#clip0_699_7944)">
<path d="M19.8175 10.4422L17.9425 12.3172C17.8845 12.3753 17.8156 12.4214 17.7397 12.4528C17.6638 12.4843 17.5825 12.5005 17.5003 12.5005C17.4182 12.5005 17.3369 12.4843 17.261 12.4528C17.1851 12.4214 17.1162 12.3753 17.0582 12.3172L15.1832 10.4422C15.0659 10.3249 15 10.1658 15 9.99998C15 9.83413 15.0659 9.67507 15.1832 9.55779C15.3004 9.44052 15.4595 9.37463 15.6253 9.37463C15.7912 9.37463 15.9503 9.44052 16.0675 9.55779L16.8753 10.3664V9.99998C16.8761 8.54422 16.4147 7.12581 15.5576 5.94908C14.7006 4.77235 13.4921 3.89804 12.1064 3.4521C10.7206 3.00616 9.22902 3.01161 7.84655 3.46767C6.46407 3.92373 5.26205 4.80686 4.41363 5.98982C4.31687 6.1245 4.17057 6.21523 4.00691 6.24204C3.84326 6.26885 3.67565 6.22956 3.54097 6.13279C3.40629 6.03603 3.31557 5.88973 3.28876 5.72607C3.26194 5.56242 3.30124 5.39482 3.398 5.26014C4.40073 3.86211 5.82135 2.81845 7.45521 2.27953C9.08907 1.7406 10.8518 1.73422 12.4896 2.2613C14.1273 2.78838 15.5554 3.82172 16.5682 5.21246C17.5811 6.60319 18.1263 8.27953 18.1253 9.99998V10.3664L18.9332 9.55779C19.0504 9.44052 19.2095 9.37463 19.3753 9.37463C19.5412 9.37463 19.7003 9.44052 19.8175 9.55779C19.9348 9.67507 20.0007 9.83413 20.0007 9.99998C20.0007 10.1658 19.9348 10.3249 19.8175 10.4422ZM16.6003 14.739C15.5973 16.136 14.1769 17.1787 12.5436 17.717C10.9102 18.2553 9.14822 18.2615 7.51115 17.7346C5.87409 17.2077 4.44642 16.175 3.43366 14.7851C2.4209 13.3952 1.87528 11.7197 1.87535 9.99998V9.63357L1.06754 10.4422C0.95026 10.5594 0.7912 10.6253 0.625348 10.6253C0.459495 10.6253 0.300435 10.5594 0.18316 10.4422C0.0658846 10.3249 0 10.1658 0 9.99998C0 9.83413 0.0658846 9.67507 0.18316 9.55779L2.05816 7.68279C2.11621 7.62468 2.18514 7.57858 2.26101 7.54713C2.33688 7.51568 2.41821 7.49949 2.50035 7.49949C2.58248 7.49949 2.66381 7.51568 2.73969 7.54713C2.81556 7.57858 2.88449 7.62468 2.94253 7.68279L4.81753 9.55779C4.93481 9.67507 5.0007 9.83413 5.0007 9.99998C5.0007 10.1658 4.93481 10.3249 4.81753 10.4422C4.70026 10.5594 4.5412 10.6253 4.37535 10.6253C4.2095 10.6253 4.05044 10.5594 3.93316 10.4422L3.12535 9.63357V9.99998C3.12387 11.6829 3.74242 13.3075 4.86285 14.5633C5.5599 13.5532 6.54005 12.7717 7.68004 12.3172C7.06768 11.8349 6.62084 11.1737 6.40165 10.4257C6.18247 9.67764 6.20183 8.8799 6.45706 8.14338C6.71228 7.40686 7.19067 6.76817 7.82571 6.31614C8.46074 5.86412 9.22086 5.62121 10.0003 5.62121C10.7798 5.62121 11.5399 5.86412 12.175 6.31614C12.81 6.76817 13.2884 7.40686 13.5436 8.14338C13.7989 8.8799 13.8182 9.67764 13.599 10.4257C13.3799 11.1737 12.933 11.8349 12.3207 12.3172C13.4617 12.7718 14.4425 13.5542 15.1394 14.5656C15.2974 14.3881 15.4463 14.2027 15.5855 14.0101C15.6823 13.8755 15.8286 13.7847 15.9922 13.7579C16.1559 13.7311 16.3235 13.7704 16.4582 13.8672C16.5928 13.9639 16.6836 14.1102 16.7104 14.2739C16.7372 14.4375 16.6979 14.6051 16.6011 14.7398L16.6003 14.739ZM10.0003 11.875C10.4948 11.875 10.9782 11.7284 11.3893 11.4537C11.8004 11.179 12.1208 10.7885 12.31 10.3317C12.4993 9.87487 12.5488 9.37221 12.4523 8.88725C12.3558 8.4023 12.1177 7.95684 11.7681 7.60721C11.4185 7.25758 10.973 7.01948 10.4881 6.92302C10.0031 6.82655 9.50045 6.87606 9.04364 7.06528C8.58682 7.2545 8.19638 7.57493 7.92167 7.98606C7.64697 8.39718 7.50035 8.88053 7.50035 9.37498C7.50035 10.038 7.76374 10.6739 8.23258 11.1427C8.70142 11.6116 9.33731 11.875 10.0003 11.875ZM10.0003 16.875C11.5257 16.873 13.0073 16.3649 14.2128 15.4304C13.7607 14.7233 13.1378 14.1414 12.4017 13.7383C11.6655 13.3352 10.8397 13.1239 10.0003 13.1239C9.16103 13.1239 8.33522 13.3352 7.59904 13.7383C6.86285 14.1414 6.23998 14.7233 5.78785 15.4304C6.99162 16.3683 8.47438 16.8767 10.0003 16.875Z" fill="#A10404"/>
</g>
<defs>
<clipPath id="clip0_699_7944">
<rect width="20" height="20" fill="white"/>
</clipPath>
</defs>
</svg>
