<svg width="20" height="19" viewBox="0 0 20 19" fill="none" xmlns="http://www.w3.org/2000/svg">
<path d="M14.1464 5.84798C13.3939 5.10888 12.7995 4.52513 12.7995 3.6771C12.7995 1.92309 13.145 0.965558 13.7419 -0.0956556C13.8489 -0.285949 13.847 -0.512055 13.7369 -0.700431C13.6271 -0.887984 13.4319 -1 13.2146 -1H6.78754C6.57028 -1 6.37506 -0.887984 6.26531 -0.700391C6.15514 -0.512016 6.15326 -0.285949 6.2603 -0.0956165C6.85713 0.965558 7.20265 1.92309 7.20265 3.6771C7.20265 4.52513 6.60829 5.10888 5.8558 5.84798C4.78187 6.90278 3.44531 8.21554 3.44531 10.8787C3.44531 11.8553 3.7888 13.0615 4.46621 14.4638C5.03698 15.6454 5.74884 16.762 6.26332 17.514V18.0802C6.26332 18.5874 6.67592 19 7.18308 19H12.8191C13.3263 19 13.7389 18.5874 13.7389 18.0802V17.5144C14.2534 16.7626 14.9652 15.6461 15.536 14.4646C16.2134 13.0623 16.5569 11.8559 16.5569 10.8787C16.5569 8.21554 15.2203 6.90278 14.1464 5.84798ZM7.72077 2.40509H12.2814C12.236 2.78568 12.2124 3.20458 12.2124 3.6771C12.2124 3.68368 12.2127 3.6901 12.2128 3.69667H7.78934C7.78938 3.6901 7.78974 3.68368 7.78974 3.6771C7.78974 3.20458 7.76621 2.78568 7.72077 2.40509ZM6.77204 -0.383405C6.76985 -0.387319 6.76617 -0.393855 6.77208 -0.403992C6.77733 -0.412916 6.78296 -0.412916 6.78754 -0.412916H13.2146C13.2192 -0.412916 13.2248 -0.412916 13.2301 -0.403992C13.236 -0.393855 13.2324 -0.387319 13.2301 -0.383405C12.8351 0.319139 12.5421 0.979061 12.3744 1.818H11.7677C11.817 1.40153 11.8868 1.01249 11.9836 0.615577C12.0219 0.458082 11.9254 0.299217 11.7679 0.260822C11.6104 0.222388 11.4516 0.318982 11.4132 0.476438C11.3053 0.919021 11.2291 1.35155 11.1767 1.818H10.2946V0.545988C10.2946 0.383875 10.1632 0.252446 10.0011 0.252446C9.83897 0.252446 9.70754 0.383875 9.70754 0.545988V1.818H8.82547C8.77298 1.351 8.69666 0.917926 8.58856 0.474795C8.55013 0.317299 8.39118 0.220665 8.23381 0.259217C8.07631 0.297652 7.97979 0.456477 8.01823 0.613973C8.11521 1.01143 8.18508 1.40102 8.23447 1.818H7.62774C7.46003 0.979061 7.16711 0.319139 6.77204 -0.383405ZM12.8191 18.4129H7.18308C6.99964 18.4129 6.8504 18.2637 6.8504 18.0802V17.7476H13.1518V18.0802C13.1518 18.2637 13.0025 18.4129 12.8191 18.4129ZM13.2696 17.1605H6.73287C5.69377 15.6389 4.0324 12.891 4.0324 10.8787C4.0324 8.4618 5.21968 7.29566 6.26719 6.26681C6.896 5.64924 7.49639 5.05894 7.70864 4.28376H12.2935C12.5058 5.05898 13.1062 5.64924 13.735 6.26681C14.7825 7.29566 15.9698 8.4618 15.9698 10.8787C15.9698 12.8919 14.3087 15.6391 13.2696 17.1605Z" fill="#A10404"/>
<path d="M12.36 11.1785C12.2512 11.1156 11.9756 10.994 11.6494 10.8718C11.9583 10.7546 12.2164 10.6401 12.3209 10.5798C12.5336 10.4569 12.6858 10.2586 12.7494 10.0213C12.813 9.78398 12.7803 9.53611 12.6575 9.32335C12.5347 9.11055 12.3363 8.95838 12.099 8.89478C11.8617 8.83122 11.6138 8.86378 11.401 8.98668C11.2908 9.05032 11.0572 9.22069 10.7973 9.43384C10.8521 9.10022 10.8826 8.81251 10.8826 8.68734C10.8826 8.18018 10.47 7.76758 9.96281 7.76758C9.45565 7.76758 9.04308 8.18022 9.04308 8.68738C9.04308 8.81255 9.07353 9.10022 9.12841 9.43388C8.86849 9.22073 8.63487 9.0504 8.52461 8.98672C8.08536 8.73314 7.52175 8.88413 7.26817 9.32335C7.14532 9.53611 7.11267 9.78398 7.17627 10.0213C7.23988 10.2586 7.39205 10.457 7.60481 10.5798C7.71361 10.6426 7.98919 10.7643 8.31537 10.8865C8.01189 11.0013 7.7549 11.1145 7.64395 11.1785C7.20473 11.4321 7.05373 11.9957 7.30727 12.435C7.47745 12.7297 7.78723 12.8947 8.10539 12.8947C8.26128 12.8947 8.41925 12.855 8.56371 12.7716C8.67076 12.7098 8.89408 12.5474 9.14496 12.3429C9.09201 12.6687 9.06265 12.9481 9.06265 13.071C9.06265 13.5781 9.47526 13.9907 9.98242 13.9907C10.4896 13.9907 10.9022 13.5781 10.9022 13.071C10.9022 12.9435 10.8706 12.6473 10.8137 12.3057C11.0845 12.529 11.3291 12.7075 11.4403 12.7716C11.5848 12.8551 11.7427 12.8947 11.8986 12.8947C12.2167 12.8947 12.5265 12.7297 12.6967 12.435C12.9502 11.9957 12.7992 11.4321 12.36 11.1785ZM9.66931 10.8792C9.66931 10.6957 9.81854 10.5465 10.002 10.5465C10.1854 10.5465 10.3347 10.6957 10.3347 10.8792C10.3347 11.0626 10.1854 11.2118 10.002 11.2118C9.81854 11.2118 9.66931 11.0626 9.66931 10.8792ZM11.6946 9.49517C11.7716 9.45071 11.8612 9.43893 11.9471 9.46194C12.0329 9.48492 12.1047 9.53999 12.1491 9.61693C12.1935 9.69388 12.2053 9.78355 12.1823 9.86938C12.1593 9.95521 12.1043 10.027 12.0273 10.0714C11.8968 10.1468 11.3549 10.3739 10.8506 10.5247C10.8151 10.4399 10.7672 10.3616 10.7093 10.292C11.0899 9.93224 11.5622 9.57165 11.6946 9.49517ZM9.96285 8.3547C10.1463 8.3547 10.2955 8.50394 10.2955 8.68738C10.2955 8.83932 10.2182 9.44453 10.0923 9.9639C10.0626 9.961 10.0325 9.9594 10.002 9.9594C9.94532 9.9594 9.88989 9.96484 9.83604 9.9747C9.70864 9.45298 9.63017 8.84034 9.63017 8.68738C9.63017 8.50394 9.77941 8.3547 9.96285 8.3547ZM7.74336 9.86938C7.72035 9.78355 7.73217 9.69392 7.77659 9.61693C7.86833 9.45803 8.0722 9.40351 8.23103 9.49517C8.36884 9.57474 8.87377 9.96128 9.26125 10.3347C9.21385 10.399 9.17479 10.4697 9.14524 10.5452C8.62218 10.3954 8.0349 10.1502 7.89835 10.0714C7.8214 10.027 7.76633 9.95521 7.74336 9.86938ZM8.27017 12.2632C8.11126 12.3549 7.90743 12.3003 7.81573 12.1414C7.72402 11.9825 7.77862 11.7787 7.93749 11.687C8.0749 11.6076 8.63995 11.3725 9.14923 11.2233C9.18172 11.3035 9.2252 11.3781 9.27784 11.4453C8.89365 11.8118 8.40524 12.1852 8.27017 12.2632ZM9.98242 13.4036C9.79898 13.4036 9.64974 13.2544 9.64974 13.0709C9.64974 12.9183 9.72782 12.308 9.85479 11.787C9.90273 11.7947 9.95189 11.7989 10.002 11.7989C10.039 11.7989 10.0755 11.7965 10.1113 11.7922C10.2375 12.3121 10.3151 12.9189 10.3151 13.0709C10.3151 13.2544 10.1659 13.4036 9.98242 13.4036ZM12.1883 12.1414C12.0965 12.3003 11.8927 12.3549 11.7338 12.2632C11.6024 12.1873 11.1137 11.8151 10.7261 11.4452C10.7788 11.3781 10.8223 11.3035 10.8547 11.2232C11.3686 11.3737 11.9329 11.6098 12.0665 11.6869C12.2254 11.7787 12.28 11.9825 12.1883 12.1414Z" fill="#A10404"/>
<path d="M10.0013 6.20117C7.42234 6.20117 5.32422 8.29929 5.32422 10.8783C5.32422 13.4573 7.42234 15.5554 10.0013 15.5554C12.5803 15.5554 14.6784 13.4573 14.6784 10.8783C14.6784 8.29929 12.5803 6.20117 10.0013 6.20117ZM10.0013 14.9683C7.74606 14.9683 5.9113 13.1335 5.9113 10.8783C5.9113 8.62301 7.74606 6.78826 10.0013 6.78826C12.2566 6.78826 14.0913 8.62301 14.0913 10.8783C14.0913 13.1335 12.2566 14.9683 10.0013 14.9683Z" fill="#A10404"/>
<path d="M8.75057 3.3449C8.82768 3.3449 8.90361 3.31359 8.95801 3.25879C9.0128 3.20439 9.04412 3.12846 9.04412 3.05135C9.04412 2.97425 9.0128 2.89832 8.95801 2.84392C8.90361 2.78912 8.82768 2.75781 8.75057 2.75781C8.67347 2.75781 8.59754 2.78912 8.54314 2.84392C8.48834 2.89832 8.45703 2.97425 8.45703 3.05135C8.45703 3.12846 8.48834 3.20439 8.54314 3.25879C8.59793 3.31359 8.67347 3.3449 8.75057 3.3449Z" fill="#A10404"/>
<path d="M10.0006 3.3449C10.0777 3.3449 10.1536 3.31359 10.208 3.25879C10.2628 3.20439 10.2941 3.12846 10.2941 3.05135C10.2941 2.97425 10.2628 2.89832 10.208 2.84392C10.1536 2.78912 10.0777 2.75781 10.0006 2.75781C9.92347 2.75781 9.84754 2.78912 9.79314 2.84392C9.73834 2.89832 9.70703 2.97425 9.70703 3.05135C9.70703 3.12846 9.73834 3.20439 9.79314 3.25879C9.84754 3.31359 9.92347 3.3449 10.0006 3.3449Z" fill="#A10404"/>
<path d="M11.2545 3.3449C11.3316 3.3449 11.4075 3.31359 11.4619 3.25879C11.5167 3.20439 11.548 3.12846 11.548 3.05135C11.548 2.97425 11.5167 2.89832 11.4619 2.84392C11.4075 2.78912 11.3316 2.75781 11.2545 2.75781C11.1774 2.75781 11.1014 2.78912 11.047 2.84392C10.9922 2.89832 10.9609 2.97386 10.9609 3.05135C10.9609 3.12885 10.9922 3.20439 11.047 3.25879C11.1014 3.31359 11.1774 3.3449 11.2545 3.3449Z" fill="#A10404"/>
</svg>
