<svg width="20" height="20" viewBox="0 0 20 20" fill="none" xmlns="http://www.w3.org/2000/svg">
<path d="M19.3191 12.6156C19.1616 12.2312 18.7063 12.0394 18.1941 11.9041C18.0898 11.53 17.7932 11.0928 17.7076 10.9847C16.7838 9.81469 15.2232 9.11625 13.5332 9.11625C12.8508 9.11752 12.173 9.22841 11.5257 9.44469C10.7213 8.86281 9.86507 8.14688 8.91069 7.25656C7.28475 5.73813 5.32663 5 2.92507 5C1.03382 5 0.681003 5.04969 0.630691 5.39656C0.522878 6.13406 1.96788 7.22219 3.18382 12.2672C3.18382 12.2672 3.39475 13.1594 4.98382 12.915C6.18819 12.73 7.70788 12.8091 10.6176 14.0912C10.7554 14.1591 10.8979 14.2234 11.0454 14.2831C11.0598 14.2897 11.0726 14.295 11.0869 14.3019L11.0857 14.3003C13.9294 15.4319 18.2863 15.0597 18.8754 14.1166C18.9601 13.9819 19.0141 13.8547 19.0473 13.7331C19.071 13.7034 19.0966 13.6744 19.1163 13.6434C19.3698 13.2378 19.436 12.9016 19.3191 12.6156ZM8.77132 11.1097C6.66382 8.21687 3.69913 6.70594 2.08288 5.88219C1.89132 5.78438 1.69694 5.68562 1.53475 5.59812C1.97819 5.57156 2.62163 5.57156 2.92507 5.57156C5.17663 5.57156 7.00819 6.25937 8.52475 7.675C9.3785 8.47125 10.1579 9.13344 10.8926 9.68656C10.8591 9.70156 9.56319 10.1744 8.77132 11.1097ZM9.08569 11.6006C11.7935 8.84313 15.5632 9.06781 16.8788 10.9225C16.8788 10.9225 15.6794 10.19 14.4423 10.19C13.6726 10.19 11.3048 10.585 11.3048 13.6572C10.7482 13.4525 9.44944 12.6906 9.08569 11.6006ZM14.6913 11.1506C14.4141 11.0569 14.1351 10.9503 13.8507 10.8225C14.034 10.7841 14.2206 10.7643 14.4079 10.7634C14.5129 10.87 14.6151 10.9987 14.6913 11.1506ZM14.9701 14.1784C14.1682 14.1784 12.9985 14.1034 11.8673 13.7594C11.8673 12.1478 12.616 11.3081 13.1344 11.1122C15.1991 12.2906 18.2732 12.0431 18.7935 12.8328C19.2141 13.4709 16.9101 14.1784 14.9701 14.1784Z" fill="#A10404"/>
</svg>
