<svg width="40" height="40" viewBox="0 0 40 40" fill="none" xmlns="http://www.w3.org/2000/svg">
<path fill-rule="evenodd" clip-rule="evenodd" d="M8.46305 14.612H11.54C12.0015 14.612 12.3092 14.3813 12.3092 13.9198V13.8428C12.3092 9.45835 16.0784 5.84307 20.54 6.15076C24.6169 6.45844 27.6938 9.9968 27.6938 14.1505V13.9198C27.6938 14.3813 28.0015 14.612 28.463 14.612H31.54C32.0015 14.612 32.3092 14.3813 32.3092 13.9198V13.8428C32.3092 6.84304 26.463 1.22782 19.3861 1.53551C12.8477 1.84319 7.84766 7.38149 7.69382 13.9198C7.77074 14.3044 8.07843 14.612 8.46305 14.612V14.612ZM7.69397 13.9217V14.2294V13.9217ZM35.3864 20.7684C35.3864 19.076 34.0018 17.6913 32.3095 17.6913H7.69411C6.0018 17.6913 4.61719 19.076 4.61719 20.7684V35.3847C4.61719 37.0771 6.0018 38.4618 7.69411 38.4618H32.3095C34.0018 38.4618 35.3864 37.0771 35.3864 35.3847V20.7684ZM23.5402 32.8433C23.694 33.3049 23.3094 33.8433 22.7709 33.8433H17.1555C16.6171 33.8433 16.3094 33.3818 16.3863 32.8433L17.7709 28.2281C16.6171 27.4589 15.9248 26.0743 16.1555 24.5359C16.4632 23.0744 17.6171 21.9206 19.1555 21.6129C21.6171 21.1514 23.7709 22.9205 23.7709 25.2282C23.7709 26.4589 23.1555 27.6127 22.1555 28.2281L23.5402 32.8433V32.8433Z" fill="#A10404"/>
</svg>
