<svg width="32" height="32" viewBox="0 0 32 32" fill="none" xmlns="http://www.w3.org/2000/svg">
<path d="M28.0008 15.9996C28.0008 16.2648 27.8954 16.5191 27.7079 16.7067C27.5204 16.8942 27.266 16.9996 27.0008 16.9996H7.41454L14.7083 24.2921C14.8012 24.385 14.8749 24.4953 14.9252 24.6167C14.9755 24.7381 15.0013 24.8682 15.0013 24.9996C15.0013 25.131 14.9755 25.2611 14.9252 25.3825C14.8749 25.5039 14.8012 25.6142 14.7083 25.7071C14.6154 25.8 14.5051 25.8737 14.3837 25.924C14.2623 25.9743 14.1322 26.0001 14.0008 26.0001C13.8694 26.0001 13.7393 25.9743 13.6179 25.924C13.4965 25.8737 13.3862 25.8 13.2933 25.7071L4.29329 16.7071C4.20031 16.6142 4.12655 16.5039 4.07623 16.3825C4.0259 16.2611 4 16.131 4 15.9996C4 15.8682 4.0259 15.738 4.07623 15.6166C4.12655 15.4952 4.20031 15.385 4.29329 15.2921L13.2933 6.29208C13.4809 6.10444 13.7354 5.99902 14.0008 5.99902C14.2662 5.99902 14.5206 6.10444 14.7083 6.29208C14.8959 6.47972 15.0013 6.73422 15.0013 6.99958C15.0013 7.26494 14.8959 7.51944 14.7083 7.70708L7.41454 14.9996H27.0008C27.266 14.9996 27.5204 15.1049 27.7079 15.2925C27.8954 15.48 28.0008 15.7344 28.0008 15.9996Z" fill="#3F3F3F"/>
</svg>
