<svg width="50" height="38" viewBox="0 0 50 38" fill="none" xmlns="http://www.w3.org/2000/svg">
<path fill-rule="evenodd" clip-rule="evenodd" d="M2.08333 4.16667C2.08333 1.86548 3.94881 0 6.25 0H29.1667C31.4679 0 33.3333 1.86548 33.3333 4.16667V6.25H39.5833C44.1856 6.25 47.9167 9.98096 47.9167 14.5833V16.6667V22.9167V27.0833C49.0673 27.0833 50 28.016 50 29.1667C50 30.3173 49.0673 31.25 47.9167 31.25H45.8333H39.4792C39.5475 31.5867 39.5833 31.935 39.5833 32.2917C39.5833 35.1681 37.2515 37.5 34.375 37.5C31.4985 37.5 29.1667 35.1681 29.1667 32.2917C29.1667 31.935 29.2025 31.5867 29.2708 31.25H16.5625C16.6308 31.5867 16.6667 31.935 16.6667 32.2917C16.6667 35.1681 14.3348 37.5 11.4583 37.5C8.58185 37.5 6.25 35.1681 6.25 32.2917C6.25 31.935 6.28587 31.5867 6.35419 31.25H4.16667H2.08333C0.932739 31.25 0 30.3173 0 29.1667C0 28.016 0.932739 27.0833 2.08333 27.0833V4.16667ZM34.375 31.25C33.7998 31.25 33.3333 31.7165 33.3333 32.2917C33.3333 32.8669 33.7998 33.3333 34.375 33.3333C34.9502 33.3333 35.4167 32.8669 35.4167 32.2917C35.4167 31.7165 34.9502 31.25 34.375 31.25ZM34.375 27.0833H43.75V22.9167V18.75H39.5833C38.4327 18.75 37.5 17.8173 37.5 16.6667C37.5 15.516 38.4327 14.5833 39.5833 14.5833H43.75C43.75 12.2821 41.8846 10.4167 39.5833 10.4167H33.3333V27.0833H34.375ZM29.1667 27.0833H11.4583H6.25V4.16667H29.1667V8.33333V27.0833ZM10.4167 32.2917C10.4167 31.7165 10.883 31.25 11.4583 31.25C12.0336 31.25 12.5 31.7165 12.5 32.2917C12.5 32.8669 12.0336 33.3333 11.4583 33.3333C10.883 33.3333 10.4167 32.8669 10.4167 32.2917Z" fill="#3F3F3F"/>
</svg>
