<svg width="50" height="50" viewBox="0 0 50 50" fill="none" xmlns="http://www.w3.org/2000/svg">
<g clip-path="url(#clip0_1051_8610)">
<path d="M41.9042 22.3894L31.25 11.7363V8.33317C31.25 6.0415 29.375 4.1665 27.0833 4.1665H10.4167C8.125 4.1665 6.25 6.0415 6.25 8.33317V33.2863C6.25 35.578 8.125 37.453 10.4167 37.453H14.575L14.701 38.2853C15.3479 42.5613 18.8802 45.7863 22.9177 45.7863H43.751V28.078C43.75 24.4613 42.35 22.8196 41.9042 22.3894ZM27.0833 9.56755C26.8771 9.54775 26.6687 9.53629 26.4583 9.53629C24.7865 9.53629 23.2167 10.1853 22.0417 11.3603C20.8625 12.5321 20.2104 14.0988 20.2083 15.7707C20.2052 17.4488 20.8552 19.0238 22.0375 20.2071L27.0833 25.253V33.2863H19.7917V8.33317H27.0833V9.56755ZM10.4167 8.33317H13.5417V33.2863H10.4167V8.33317ZM39.5833 41.6196H22.9167C20.9219 41.6196 19.1615 39.9186 18.8198 37.6623L18.7885 37.453H27.0833C29.375 37.453 31.25 35.578 31.25 33.2863V29.4196L33.4583 31.628L36.4052 28.6821L31.5479 23.8248L26.0417 18.3196L24.9833 17.2613C24.5896 16.8675 24.374 16.3405 24.375 15.778C24.376 15.2217 24.5906 14.7019 24.9833 14.3113C25.424 13.8707 26.05 13.6863 26.6542 13.7405C27.1281 13.7821 27.5885 13.9665 27.9333 14.3113L32.2917 18.6696L38.975 25.353L38.9 25.33L39.0135 25.405C39.15 25.6103 39.5833 26.3925 39.5833 28.078V41.6196Z" fill="#3F3F3F"/>
</g>
<defs>
<clipPath id="clip0_1051_8610">
<rect width="50" height="50" fill="white"/>
</clipPath>
</defs>
</svg>
