<svg width="25" height="25" viewBox="0 0 25 25" fill="none" xmlns="http://www.w3.org/2000/svg">
<path d="M21.7319 13.5276C21.7319 13.7313 21.651 13.9267 21.5069 14.0707C21.3629 14.2148 21.1675 14.2957 20.9638 14.2957H13.2825V21.977C13.2825 22.1807 13.2016 22.3761 13.0575 22.5201C12.9135 22.6642 12.7181 22.7451 12.5144 22.7451C12.3107 22.7451 12.1153 22.6642 11.9712 22.5201C11.8272 22.3761 11.7463 22.1807 11.7463 21.977V14.2957H4.065C3.86128 14.2957 3.66591 14.2148 3.52185 14.0707C3.3778 13.9267 3.29688 13.7313 3.29688 13.5276C3.29688 13.3239 3.3778 13.1285 3.52185 12.9844C3.66591 12.8404 3.86128 12.7594 4.065 12.7594H11.7463V5.07818C11.7463 4.87447 11.8272 4.67909 11.9712 4.53504C12.1153 4.39099 12.3107 4.31006 12.5144 4.31006C12.7181 4.31006 12.9135 4.39099 13.0575 4.53504C13.2016 4.67909 13.2825 4.87447 13.2825 5.07818V12.7594H20.9638C21.1675 12.7594 21.3629 12.8404 21.5069 12.9844C21.651 13.1285 21.7319 13.3239 21.7319 13.5276Z" fill="#3F3F3F"/>
</svg>
