<svg width="23" height="23" viewBox="0 0 23 23" fill="none" xmlns="http://www.w3.org/2000/svg">
<path d="M11.375 0C9.12524 0 6.926 0.667132 5.05539 1.91703C3.18478 3.16693 1.72682 4.94347 0.865875 7.02198C0.00492861 9.10048 -0.220334 11.3876 0.218573 13.5942C0.657479 15.8007 1.74084 17.8275 3.33167 19.4183C4.92249 21.0092 6.94932 22.0925 9.15585 22.5314C11.3624 22.9703 13.6495 22.7451 15.728 21.8841C17.8065 21.0232 19.5831 19.5652 20.833 17.6946C22.0829 15.824 22.75 13.6248 22.75 11.375C22.7468 8.35914 21.5474 5.46771 19.4148 3.33518C17.2823 1.20264 14.3909 0.0031848 11.375 0ZM14.6191 11.9941L10.2441 16.3691C10.1628 16.4504 10.0663 16.5148 9.96004 16.5588C9.85382 16.6028 9.73997 16.6255 9.625 16.6255C9.51003 16.6255 9.39619 16.6028 9.28997 16.5588C9.18375 16.5148 9.08724 16.4504 9.00594 16.3691C8.92465 16.2878 8.86016 16.1913 8.81616 16.085C8.77216 15.9788 8.74952 15.865 8.74952 15.75C8.74952 15.635 8.77216 15.5212 8.81616 15.415C8.86016 15.3087 8.92465 15.2122 9.00594 15.1309L12.763 11.375L9.00594 7.61906C8.84176 7.45488 8.74952 7.23219 8.74952 7C8.74952 6.76781 8.84176 6.54512 9.00594 6.38094C9.17013 6.21675 9.39281 6.12451 9.625 6.12451C9.8572 6.12451 10.0799 6.21675 10.2441 6.38094L14.6191 10.7559C14.7004 10.8372 14.765 10.9337 14.809 11.0399C14.853 11.1461 14.8757 11.26 14.8757 11.375C14.8757 11.49 14.853 11.6038 14.809 11.7101C14.765 11.8163 14.7004 11.9128 14.6191 11.9941Z" fill="white"/>
</svg>
