<svg width="23" height="27" viewBox="0 0 23 27" fill="none" xmlns="http://www.w3.org/2000/svg">
<path d="M17.8164 16.8788C17.1911 16.8786 16.572 17.0038 15.9959 17.2472C15.4198 17.4906 14.8984 17.847 14.4625 18.2955L9.06019 14.8233C9.48515 13.7336 9.48515 12.5239 9.06019 11.4342L14.4625 7.96196C15.274 8.79319 16.3652 9.2935 17.5246 9.3659C18.684 9.43829 19.829 9.0776 20.7376 8.35377C21.6461 7.62994 22.2536 6.59452 22.4421 5.44827C22.6306 4.30202 22.3868 3.1266 21.7579 2.14989C21.1291 1.17318 20.1599 0.464777 19.0384 0.162014C17.9169 -0.140749 16.723 -0.0162976 15.688 0.51124C14.6531 1.03878 13.8508 1.93182 13.4369 3.01722C13.023 4.10262 13.0268 5.30305 13.4477 6.38578L8.04535 9.85805C7.3948 9.19017 6.55987 8.73146 5.64727 8.54056C4.73467 8.34966 3.78588 8.43525 2.92218 8.78637C2.05847 9.1375 1.3191 9.73821 0.798567 10.5117C0.278036 11.2852 0 12.1964 0 13.1288C0 14.0611 0.278036 14.9723 0.798567 15.7458C1.3191 16.5193 2.05847 17.12 2.92218 17.4711C3.78588 17.8223 4.73467 17.9078 5.64727 17.7169C6.55987 17.526 7.3948 17.0673 8.04535 16.3995L13.4477 19.8717C13.0858 20.8052 13.0322 21.8299 13.2949 22.796C13.5575 23.7621 14.1226 24.6187 14.9073 25.2404C15.692 25.8621 16.6551 26.2162 17.6556 26.2509C18.6562 26.2856 19.6415 25.9991 20.4675 25.4333C21.2934 24.8675 21.9164 24.0521 22.2454 23.1066C22.5744 22.161 22.592 21.135 22.2956 20.1787C21.9993 19.2225 21.4046 18.3862 20.5985 17.7924C19.7925 17.1985 18.8176 16.8784 17.8164 16.8788ZM17.8164 1.87875C18.3727 1.87875 18.9165 2.0437 19.379 2.35275C19.8415 2.66179 20.202 3.10104 20.4149 3.61496C20.6277 4.12887 20.6834 4.69437 20.5749 5.23994C20.4664 5.78552 20.1985 6.28666 19.8052 6.67999C19.4118 7.07333 18.9107 7.34119 18.3651 7.44971C17.8196 7.55823 17.2541 7.50254 16.7401 7.28966C16.2262 7.07679 15.787 6.71631 15.4779 6.25379C15.1689 5.79128 15.0039 5.24751 15.0039 4.69125C15.0039 3.94533 15.3003 3.22996 15.8277 2.70252C16.3552 2.17507 17.0705 1.87875 17.8164 1.87875ZM4.69144 15.9413C4.13518 15.9413 3.59142 15.7763 3.1289 15.4673C2.66639 15.1582 2.3059 14.719 2.09303 14.2051C1.88016 13.6911 1.82446 13.1256 1.93299 12.5801C2.04151 12.0345 2.30937 11.5334 2.70271 11.14C3.09604 10.7467 3.59718 10.4788 4.14275 10.3703C4.68832 10.2618 5.25382 10.3175 5.76774 10.5303C6.28166 10.7432 6.72091 11.1037 7.02995 11.5662C7.33899 12.0287 7.50394 12.5725 7.50394 13.1288C7.50394 13.8747 7.20763 14.59 6.68018 15.1175C6.15274 15.6449 5.43737 15.9413 4.69144 15.9413ZM17.8164 24.3788C17.2602 24.3788 16.7164 24.2138 16.2539 23.9048C15.7914 23.5957 15.4309 23.1565 15.218 22.6425C15.0052 22.1286 14.9495 21.5631 15.058 21.0176C15.1665 20.472 15.4344 19.9708 15.8277 19.5775C16.221 19.1842 16.7222 18.9163 17.2678 18.8078C17.8133 18.6993 18.3788 18.755 18.8927 18.9678C19.4067 19.1807 19.8459 19.5412 20.155 20.0037C20.464 20.4662 20.6289 21.01 20.6289 21.5663C20.6289 22.3122 20.3326 23.0275 19.8052 23.555C19.2777 24.0824 18.5624 24.3788 17.8164 24.3788Z" fill="#716B6B"/>
</svg>
