<svg width="42" height="42" viewBox="0 0 42 42" fill="none" xmlns="http://www.w3.org/2000/svg">
<path fill-rule="evenodd" clip-rule="evenodd" d="M4.16667 20.8333C4.16667 11.6286 11.6286 4.16667 20.8333 4.16667C30.0381 4.16667 37.5 11.6286 37.5 20.8333C37.5 30.0381 30.0381 37.5 20.8333 37.5C19.0746 37.5 17.3796 37.2275 15.788 36.7227C15.9045 36.1442 16.044 35.596 16.204 35.0721C16.4596 35.0717 16.7188 35.0473 16.9788 34.9979L20.2615 34.3725C29.8865 32.5392 35.0013 21.9252 30.4379 13.2546L28.6973 9.94779C27.7575 8.1619 25.6727 7.30635 23.7492 7.91715L20.7146 8.88075C13.5707 11.1492 9.30979 18.4637 10.8604 25.7971L12.1226 31.7667C12.2081 32.171 12.3497 32.5494 12.5376 32.8952C12.3074 33.5367 12.1011 34.2098 11.9237 34.9212C7.26156 31.9665 4.16667 26.7612 4.16667 20.8333ZM20.8333 0C9.32739 0 0 9.32739 0 20.8333C0 32.3392 9.32739 41.6667 20.8333 41.6667C32.3392 41.6667 41.6667 32.3392 41.6667 20.8333C41.6667 9.32739 32.3392 0 20.8333 0ZM18.6723 29.9912C18.5631 30.1585 18.4558 30.3265 18.3504 30.495L19.4819 30.2796C26.3569 28.97 30.0102 21.3885 26.7506 15.1953L25.0102 11.8884L21.9756 12.852C16.8729 14.4723 13.8294 19.6971 14.9369 24.935L15.4417 27.3223C15.9646 26.5398 16.515 25.7696 17.0498 25.021C17.2696 24.7133 17.4875 24.4083 17.6994 24.1083C18.531 22.9304 19.3269 21.751 20.0537 20.4415C20.6121 19.4356 21.8802 19.0727 22.8862 19.631C23.8923 20.1894 24.2552 21.4575 23.6969 22.4635C22.861 23.9694 21.964 25.2923 21.1029 26.5117C20.8608 26.8548 20.6248 27.1852 20.3942 27.5079C19.7873 28.3575 19.2181 29.154 18.6723 29.9912Z" fill="#3F3F3F"/>
</svg>
