<svg width="46" height="46" viewBox="0 0 46 46" fill="none" xmlns="http://www.w3.org/2000/svg">
<path d="M33.0392 15.6625C33.4781 16.1019 33.7246 16.6976 33.7246 17.3187C33.7246 17.9398 33.4781 18.5355 33.0392 18.975L20.5392 31.475C20.0997 31.9139 19.504 32.1604 18.8829 32.1604C18.2618 32.1604 17.6661 31.9139 17.2267 31.475L12.5392 26.7875C12.1252 26.3432 11.8998 25.7555 11.9105 25.1484C11.9212 24.5412 12.1672 23.9618 12.5966 23.5324C13.026 23.103 13.6054 22.857 14.2126 22.8463C14.8198 22.8356 15.4074 23.061 15.8517 23.475L18.8829 26.5062L29.7267 15.6625C30.1661 15.2236 30.7618 14.9771 31.3829 14.9771C32.004 14.9771 32.5997 15.2236 33.0392 15.6625Z" fill="#3F3F3F"/>
<path fill-rule="evenodd" clip-rule="evenodd" d="M17.7936 1.59982C19.2508 0.559321 20.9967 0 22.7873 0C24.5779 0 26.3238 0.559321 27.7811 1.59982L29.9373 3.14045C30.4186 3.4842 30.9748 3.71545 31.5592 3.81232L34.2623 4.26857C36.0226 4.56565 37.6466 5.40351 38.9089 6.66579C40.1711 7.92806 41.009 9.55209 41.3061 11.3123L41.7623 14.0186C41.8592 14.6029 42.0904 15.1561 42.4342 15.6373L43.9748 17.7936C45.016 19.2511 45.5758 20.9976 45.5758 22.7889C45.5758 24.5801 45.016 26.3266 43.9748 27.7842L42.4342 29.9404C42.0904 30.4217 41.8592 30.9717 41.7623 31.5592L41.3061 34.2623C41.009 36.0226 40.1711 37.6466 38.9089 38.9089C37.6466 40.1711 36.0226 41.009 34.2623 41.3061L31.5592 41.7623C30.9743 41.8613 30.4197 42.0921 29.9373 42.4373L27.7811 43.9748C26.3238 45.0153 24.5779 45.5746 22.7873 45.5746C20.9967 45.5746 19.2508 45.0153 17.7936 43.9748L15.6373 42.4373C15.155 42.0921 14.6003 41.8613 14.0154 41.7623L11.3123 41.3061C9.55209 41.009 7.92806 40.1711 6.66579 38.9089C5.40351 37.6466 4.56565 36.0226 4.26857 34.2623L3.81232 31.5592C3.71432 30.9746 3.48456 30.42 3.14045 29.9373L1.59982 27.7811C0.559321 26.3238 0 24.5779 0 22.7873C0 20.9967 0.559321 19.2508 1.59982 17.7936L3.14045 15.6373C3.48413 15.1556 3.71387 14.6021 3.81232 14.0186L4.26857 11.3123C4.56565 9.55209 5.40351 7.92806 6.66579 6.66579C7.92806 5.40351 9.55209 4.56565 11.3123 4.26857L14.0154 3.81232C14.6 3.71432 15.1547 3.48456 15.6373 3.14045L17.7936 1.59982ZM25.0561 5.41232C24.3936 4.93918 23.5998 4.68483 22.7858 4.68483C21.9717 4.68483 21.1779 4.93918 20.5154 5.41232L18.3592 6.95295C17.2993 7.71033 16.0811 8.21684 14.7967 8.4342L12.0936 8.89045C11.293 9.0253 10.5544 9.40624 9.9803 9.9803C9.40624 10.5544 9.0253 11.293 8.89045 12.0936L8.4342 14.7967C8.2173 16.0822 7.71076 17.3015 6.95295 18.3623L5.41545 20.5186C4.9423 21.181 4.68795 21.9748 4.68795 22.7889C4.68795 23.603 4.9423 24.3967 5.41545 25.0592L6.95295 27.2154C7.71232 28.2748 8.21857 29.4936 8.4342 30.7779L8.89045 33.4811C9.16857 35.1217 10.4529 36.4061 12.0936 36.6842L14.7967 37.1404C16.0811 37.3592 17.2998 37.8654 18.3592 38.6217L20.5154 40.1623C21.1782 40.6362 21.9726 40.8909 22.7873 40.8909C23.6021 40.8909 24.3964 40.6362 25.0592 40.1623L27.2154 38.6217C28.2753 37.8643 29.4935 37.3578 30.7779 37.1404L33.4811 36.6842C34.2812 36.5495 35.0195 36.1691 35.5935 35.5956C36.1676 35.0222 36.5488 34.2842 36.6842 33.4842L37.1404 30.7779C37.3578 29.4935 37.8643 28.2753 38.6217 27.2154L40.1592 25.0592C40.6323 24.3967 40.8867 23.603 40.8867 22.7889C40.8867 21.9748 40.6323 21.181 40.1592 20.5186L38.6217 18.3623C37.8643 17.3024 37.3578 16.0842 37.1404 14.7998L36.6842 12.0936C36.5493 11.293 36.1684 10.5544 35.5943 9.9803C35.0203 9.40624 34.2816 9.0253 33.4811 8.89045L30.7779 8.4342C29.4935 8.21684 28.2753 7.71033 27.2154 6.95295L25.0592 5.41545L25.0561 5.41232Z" fill="#3F3F3F"/>
</svg>
