<svg width="30" height="30" viewBox="0 0 30 30" fill="none" xmlns="http://www.w3.org/2000/svg">
<path d="M7.49954 12.3047V4.6875C7.49954 4.43886 7.40077 4.2004 7.22495 4.02459C7.04914 3.84877 6.81068 3.75 6.56204 3.75C6.3134 3.75 6.07494 3.84877 5.89913 4.02459C5.72331 4.2004 5.62454 4.43886 5.62454 4.6875V12.3047C4.8179 12.5112 4.10294 12.9803 3.59238 13.6381C3.08181 14.2959 2.80469 15.1048 2.80469 15.9375C2.80469 16.7702 3.08181 17.5791 3.59238 18.2369C4.10294 18.8947 4.8179 19.3638 5.62454 19.5703V25.3125C5.62454 25.5611 5.72331 25.7996 5.89913 25.9754C6.07494 26.1512 6.3134 26.25 6.56204 26.25C6.81068 26.25 7.04914 26.1512 7.22495 25.9754C7.40077 25.7996 7.49954 25.5611 7.49954 25.3125V19.5703C8.30618 19.3638 9.02114 18.8947 9.5317 18.2369C10.0423 17.5791 10.3194 16.7702 10.3194 15.9375C10.3194 15.1048 10.0423 14.2959 9.5317 13.6381C9.02114 12.9803 8.30618 12.5112 7.49954 12.3047ZM6.56204 17.8125C6.1912 17.8125 5.82869 17.7025 5.52035 17.4965C5.212 17.2905 4.97168 16.9976 4.82977 16.655C4.68785 16.3124 4.65072 15.9354 4.72307 15.5717C4.79542 15.208 4.97399 14.8739 5.23622 14.6117C5.49844 14.3495 5.83253 14.1709 6.19625 14.0985C6.55996 14.0262 6.93696 14.0633 7.27957 14.2052C7.62218 14.3471 7.91502 14.5875 8.12105 14.8958C8.32707 15.2041 8.43704 15.5667 8.43704 15.9375C8.43704 16.4348 8.2395 16.9117 7.88787 17.2633C7.53623 17.615 7.05932 17.8125 6.56204 17.8125ZM15.937 6.67969V4.6875C15.937 4.43886 15.8383 4.2004 15.6625 4.02459C15.4866 3.84877 15.2482 3.75 14.9995 3.75C14.7509 3.75 14.5124 3.84877 14.3366 4.02459C14.1608 4.2004 14.062 4.43886 14.062 4.6875V6.67969C13.2554 6.88622 12.5404 7.35534 12.0299 8.0131C11.5193 8.67086 11.2422 9.47984 11.2422 10.3125C11.2422 11.1452 11.5193 11.9541 12.0299 12.6119C12.5404 13.2697 13.2554 13.7388 14.062 13.9453V25.3125C14.062 25.5611 14.1608 25.7996 14.3366 25.9754C14.5124 26.1512 14.7509 26.25 14.9995 26.25C15.2482 26.25 15.4866 26.1512 15.6625 25.9754C15.8383 25.7996 15.937 25.5611 15.937 25.3125V13.9453C16.7437 13.7388 17.4586 13.2697 17.9692 12.6119C18.4798 11.9541 18.7569 11.1452 18.7569 10.3125C18.7569 9.47984 18.4798 8.67086 17.9692 8.0131C17.4586 7.35534 16.7437 6.88622 15.937 6.67969ZM14.9995 12.1875C14.6287 12.1875 14.2662 12.0775 13.9578 11.8715C13.6495 11.6655 13.4092 11.3726 13.2673 11.03C13.1254 10.6874 13.0882 10.3104 13.1606 9.94671C13.2329 9.58299 13.4115 9.2489 13.6737 8.98668C13.9359 8.72445 14.27 8.54587 14.6337 8.47353C14.9975 8.40118 15.3745 8.43831 15.7171 8.58023C16.0597 8.72214 16.3525 8.96246 16.5585 9.27081C16.7646 9.57915 16.8745 9.94166 16.8745 10.3125C16.8745 10.8098 16.677 11.2867 16.3254 11.6383C15.9737 11.99 15.4968 12.1875 14.9995 12.1875ZM27.187 19.6875C27.1863 18.8561 26.9097 18.0485 26.4008 17.3911C25.8918 16.7337 25.1792 16.2637 24.3745 16.0547V4.6875C24.3745 4.43886 24.2758 4.2004 24.1 4.02459C23.9241 3.84877 23.6857 3.75 23.437 3.75C23.1884 3.75 22.9499 3.84877 22.7741 4.02459C22.5983 4.2004 22.4995 4.43886 22.4995 4.6875V16.0547C21.6929 16.2612 20.9779 16.7303 20.4674 17.3881C19.9568 18.0459 19.6797 18.8548 19.6797 19.6875C19.6797 20.5202 19.9568 21.3291 20.4674 21.9869C20.9779 22.6447 21.6929 23.1138 22.4995 23.3203V25.3125C22.4995 25.5611 22.5983 25.7996 22.7741 25.9754C22.9499 26.1512 23.1884 26.25 23.437 26.25C23.6857 26.25 23.9241 26.1512 24.1 25.9754C24.2758 25.7996 24.3745 25.5611 24.3745 25.3125V23.3203C25.1792 23.1113 25.8918 22.6413 26.4008 21.9839C26.9097 21.3265 27.1863 20.5189 27.187 19.6875ZM23.437 21.5625C23.0662 21.5625 22.7037 21.4525 22.3953 21.2465C22.087 21.0405 21.8467 20.7476 21.7048 20.405C21.5629 20.0624 21.5257 19.6854 21.5981 19.3217C21.6704 18.958 21.849 18.6239 22.1112 18.3617C22.3734 18.0995 22.7075 17.9209 23.0712 17.8485C23.435 17.7762 23.812 17.8133 24.1546 17.9552C24.4972 18.0971 24.79 18.3375 24.996 18.6458C25.2021 18.9541 25.312 19.3167 25.312 19.6875C25.312 20.1848 25.1145 20.6617 24.7629 21.0133C24.4112 21.365 23.9343 21.5625 23.437 21.5625Z" fill="#3F3F3F"/>
</svg>
