<svg width="24" height="24" viewBox="0 0 24 24" fill="none" xmlns="http://www.w3.org/2000/svg">
<path d="M20.72 6.69975L12.47 2.18569C12.2496 2.06389 12.0018 2 11.75 2C11.4982 2 11.2504 2.06389 11.03 2.18569L2.78 6.70162C2.5444 6.83053 2.34772 7.02034 2.21052 7.25121C2.07331 7.48208 2.00061 7.74556 2 8.01412V16.9804C2.00061 17.2489 2.07331 17.5124 2.21052 17.7433C2.34772 17.9742 2.5444 18.164 2.78 18.2929L11.03 22.8088C11.2504 22.9306 11.4982 22.9945 11.75 22.9945C12.0018 22.9945 12.2496 22.9306 12.47 22.8088L20.72 18.2929C20.9556 18.164 21.1523 17.9742 21.2895 17.7433C21.4267 17.5124 21.4994 17.2489 21.5 16.9804V8.01506C21.4999 7.74602 21.4274 7.48196 21.2902 7.25054C21.153 7.01913 20.956 6.82889 20.72 6.69975ZM11.75 3.49819L19.2819 7.62319L16.4909 9.15131L8.95813 5.02631L11.75 3.49819ZM11.75 11.7482L4.21812 7.62319L7.39625 5.88319L14.9281 10.0082L11.75 11.7482ZM3.5 8.93569L11 13.0401V21.0829L3.5 16.9813V8.93569ZM20 16.9776L12.5 21.0829V13.0438L15.5 11.4022V14.7482C15.5 14.9471 15.579 15.1379 15.7197 15.2785C15.8603 15.4192 16.0511 15.4982 16.25 15.4982C16.4489 15.4982 16.6397 15.4192 16.7803 15.2785C16.921 15.1379 17 14.9471 17 14.7482V10.581L20 8.93569V16.9766V16.9776Z" fill="#009605"/>
</svg>
