<svg width="29" height="29" viewBox="0 0 29 29" fill="none" xmlns="http://www.w3.org/2000/svg">
<path d="M25.4855 24.4127L19.9886 18.9168C21.5818 17.0041 22.3763 14.5507 22.2067 12.067C22.0372 9.58341 20.9166 7.26076 19.0782 5.58227C17.2398 3.90378 14.825 2.99867 12.3362 3.05523C9.84746 3.1118 7.47631 4.12567 5.71603 5.88595C3.95575 7.64623 2.94187 10.0174 2.88531 12.5061C2.82875 14.9949 3.73386 17.4097 5.41235 19.2481C7.09084 21.0865 9.41349 22.2071 11.8971 22.3767C14.3807 22.5462 16.8341 21.7518 18.7469 20.1585L24.2428 25.6555C24.3244 25.7371 24.4213 25.8018 24.5279 25.846C24.6345 25.8901 24.7488 25.9129 24.8642 25.9129C24.9796 25.9129 25.0938 25.8901 25.2005 25.846C25.3071 25.8018 25.4039 25.7371 25.4855 25.6555C25.5672 25.5739 25.6319 25.477 25.676 25.3704C25.7202 25.2638 25.7429 25.1495 25.7429 25.0341C25.7429 24.9187 25.7202 24.8044 25.676 24.6978C25.6319 24.5912 25.5672 24.4943 25.4855 24.4127ZM4.66365 12.7381C4.66365 11.1747 5.12724 9.64648 5.9958 8.34658C6.86437 7.04669 8.09889 6.03354 9.54325 5.43527C10.9876 4.83699 12.577 4.68045 14.1103 4.98545C15.6436 5.29045 17.0521 6.04328 18.1576 7.14876C19.263 8.25423 20.0159 9.66268 20.3209 11.196C20.6259 12.7293 20.4693 14.3187 19.871 15.7631C19.2728 17.2074 18.2596 18.4419 16.9597 19.3105C15.6598 20.1791 14.1316 20.6427 12.5682 20.6427C10.4725 20.6403 8.46329 19.8068 6.9814 18.3249C5.49951 16.843 4.66597 14.8338 4.66365 12.7381Z" fill="#A10404"/>
</svg>
