<svg width="30" height="30" viewBox="0 0 30 30" fill="none" xmlns="http://www.w3.org/2000/svg">
<path d="M15 15C15 15.2486 14.9012 15.4871 14.7254 15.6629C14.5496 15.8387 14.3111 15.9375 14.0625 15.9375H5.625C5.37636 15.9375 5.1379 15.8387 4.96209 15.6629C4.78627 15.4871 4.6875 15.2486 4.6875 15C4.6875 14.7514 4.78627 14.5129 4.96209 14.3371C5.1379 14.1613 5.37636 14.0625 5.625 14.0625H14.0625C14.3111 14.0625 14.5496 14.1613 14.7254 14.3371C14.9012 14.5129 15 14.7514 15 15ZM5.625 8.4375H21.5625C21.8111 8.4375 22.0496 8.33873 22.2254 8.16291C22.4012 7.9871 22.5 7.74864 22.5 7.5C22.5 7.25136 22.4012 7.0129 22.2254 6.83709C22.0496 6.66127 21.8111 6.5625 21.5625 6.5625H5.625C5.37636 6.5625 5.1379 6.66127 4.96209 6.83709C4.78627 7.0129 4.6875 7.25136 4.6875 7.5C4.6875 7.74864 4.78627 7.9871 4.96209 8.16291C5.1379 8.33873 5.37636 8.4375 5.625 8.4375ZM12.1875 21.5625H5.625C5.37636 21.5625 5.1379 21.6613 4.96209 21.8371C4.78627 22.0129 4.6875 22.2514 4.6875 22.5C4.6875 22.7486 4.78627 22.9871 4.96209 23.1629C5.1379 23.3387 5.37636 23.4375 5.625 23.4375H12.1875C12.4361 23.4375 12.6746 23.3387 12.8504 23.1629C13.0262 22.9871 13.125 22.7486 13.125 22.5C13.125 22.2514 13.0262 22.0129 12.8504 21.8371C12.6746 21.6613 12.4361 21.5625 12.1875 21.5625ZM26.9133 19.0242C26.8262 18.9371 26.7228 18.8679 26.609 18.8207C26.4952 18.7735 26.3732 18.7493 26.25 18.7493C26.1268 18.7493 26.0048 18.7735 25.891 18.8207C25.7772 18.8679 25.6738 18.9371 25.5867 19.0242L22.5 22.1121V13.125C22.5 12.8764 22.4012 12.6379 22.2254 12.4621C22.0496 12.2863 21.8111 12.1875 21.5625 12.1875C21.3139 12.1875 21.0754 12.2863 20.8996 12.4621C20.7238 12.6379 20.625 12.8764 20.625 13.125V22.1121L17.5383 19.0242C17.3624 18.8483 17.1238 18.7495 16.875 18.7495C16.6262 18.7495 16.3876 18.8483 16.2117 19.0242C16.0358 19.2001 15.937 19.4387 15.937 19.6875C15.937 19.9363 16.0358 20.1749 16.2117 20.3508L20.8992 25.0383C20.9863 25.1254 21.0897 25.1946 21.2035 25.2418C21.3173 25.289 21.4393 25.3132 21.5625 25.3132C21.6857 25.3132 21.8077 25.289 21.9215 25.2418C22.0353 25.1946 22.1387 25.1254 22.2258 25.0383L26.9133 20.3508C27.0004 20.2637 27.0696 20.1603 27.1168 20.0465C27.164 19.9327 27.1882 19.8107 27.1882 19.6875C27.1882 19.5643 27.164 19.4423 27.1168 19.3285C27.0696 19.2147 27.0004 19.1113 26.9133 19.0242Z" fill="#3F3F3F"/>
</svg>
