<svg width="23" height="23" viewBox="0 0 23 23" fill="none" xmlns="http://www.w3.org/2000/svg">
<path d="M11.375 0C9.12524 0 6.926 0.667132 5.05539 1.91703C3.18478 3.16693 1.72682 4.94347 0.865875 7.02198C0.00492861 9.10048 -0.220334 11.3876 0.218573 13.5942C0.657479 15.8007 1.74084 17.8275 3.33167 19.4183C4.92249 21.0092 6.94932 22.0925 9.15585 22.5314C11.3624 22.9703 13.6495 22.7451 15.728 21.8841C17.8065 21.0232 19.5831 19.5652 20.833 17.6946C22.0829 15.824 22.75 13.6248 22.75 11.375C22.7468 8.35914 21.5474 5.46771 19.4148 3.33518C17.2823 1.20264 14.3909 0.0031848 11.375 0ZM13.7441 15.1309C13.8254 15.2122 13.8899 15.3087 13.9338 15.415C13.9778 15.5212 14.0005 15.635 14.0005 15.75C14.0005 15.865 13.9778 15.9788 13.9338 16.085C13.8899 16.1913 13.8254 16.2878 13.7441 16.3691C13.6628 16.4504 13.5663 16.5148 13.46 16.5588C13.3538 16.6028 13.24 16.6255 13.125 16.6255C13.01 16.6255 12.8962 16.6028 12.79 16.5588C12.6838 16.5148 12.5872 16.4504 12.5059 16.3691L8.13094 11.9941C8.04959 11.9128 7.98505 11.8163 7.94101 11.7101C7.89698 11.6038 7.87432 11.49 7.87432 11.375C7.87432 11.26 7.89698 11.1461 7.94101 11.0399C7.98505 10.9337 8.04959 10.8372 8.13094 10.7559L12.5059 6.38094C12.5872 6.29964 12.6838 6.23515 12.79 6.19115C12.8962 6.14716 13.01 6.12451 13.125 6.12451C13.24 6.12451 13.3538 6.14716 13.46 6.19115C13.5663 6.23515 13.6628 6.29964 13.7441 6.38094C13.8254 6.46223 13.8899 6.55875 13.9338 6.66497C13.9778 6.77118 14.0005 6.88503 14.0005 7C14.0005 7.11497 13.9778 7.22882 13.9338 7.33503C13.8899 7.44125 13.8254 7.53777 13.7441 7.61906L9.98704 11.375L13.7441 15.1309Z" fill="#3F3F3F"/>
</svg>
