<svg width="24" height="24" viewBox="0 0 24 24" fill="none" xmlns="http://www.w3.org/2000/svg">
<path d="M11.469 17.0306L3.96896 9.53055C3.89927 9.46087 3.844 9.37815 3.80629 9.2871C3.76858 9.19606 3.74917 9.09848 3.74917 8.99993C3.74917 8.90138 3.76858 8.8038 3.80629 8.71276C3.844 8.62171 3.89927 8.53899 3.96896 8.4693C4.03864 8.39962 4.12137 8.34435 4.21241 8.30663C4.30346 8.26892 4.40104 8.24951 4.49958 8.24951C4.59813 8.24951 4.69571 8.26892 4.78676 8.30663C4.8778 8.34435 4.96053 8.39962 5.03021 8.4693L11.9996 15.4396L18.969 8.4693C19.1097 8.32857 19.3006 8.24951 19.4996 8.24951C19.6986 8.24951 19.8895 8.32857 20.0302 8.4693C20.1709 8.61003 20.25 8.80091 20.25 8.99993C20.25 9.19895 20.1709 9.38982 20.0302 9.53056L12.5302 17.0306C12.4606 17.1003 12.3778 17.1556 12.2868 17.1933C12.1957 17.2311 12.0981 17.2505 11.9996 17.2505C11.901 17.2505 11.8034 17.2311 11.7124 17.1933C11.6213 17.1556 11.5386 17.1003 11.469 17.0306Z" fill="#3F3F3F"/>
</svg>
