<svg width="18" height="18" viewBox="0 0 18 18" fill="none" xmlns="http://www.w3.org/2000/svg">
<path d="M4.4966 7.38281V2.8125C4.4966 2.66332 4.43734 2.52024 4.33185 2.41475C4.22636 2.30926 4.08328 2.25 3.9341 2.25C3.78492 2.25 3.64184 2.30926 3.53635 2.41475C3.43086 2.52024 3.3716 2.66332 3.3716 2.8125V7.38281C2.88762 7.50673 2.45864 7.78821 2.1523 8.18286C1.84596 8.57752 1.67969 9.0629 1.67969 9.5625C1.67969 10.0621 1.84596 10.5475 2.1523 10.9421C2.45864 11.3368 2.88762 11.6183 3.3716 11.7422V15.1875C3.3716 15.3367 3.43086 15.4798 3.53635 15.5852C3.64184 15.6907 3.78492 15.75 3.9341 15.75C4.08328 15.75 4.22636 15.6907 4.33185 15.5852C4.43734 15.4798 4.4966 15.3367 4.4966 15.1875V11.7422C4.98058 11.6183 5.40956 11.3368 5.7159 10.9421C6.02224 10.5475 6.18851 10.0621 6.18851 9.5625C6.18851 9.0629 6.02224 8.57752 5.7159 8.18286C5.40956 7.78821 4.98058 7.50673 4.4966 7.38281ZM3.9341 10.6875C3.7116 10.6875 3.49409 10.6215 3.30908 10.4979C3.12408 10.3743 2.97988 10.1986 2.89473 9.99302C2.80959 9.78745 2.78731 9.56125 2.83072 9.34302C2.87412 9.12479 2.98127 8.92434 3.1386 8.767C3.29594 8.60967 3.49639 8.50252 3.71462 8.45912C3.93285 8.41571 4.15905 8.43799 4.36462 8.52314C4.57019 8.60828 4.74589 8.75248 4.8695 8.93748C4.99312 9.12249 5.0591 9.34 5.0591 9.5625C5.0591 9.86087 4.94057 10.147 4.72959 10.358C4.51862 10.569 4.23247 10.6875 3.9341 10.6875ZM9.5591 4.00781V2.8125C9.5591 2.66332 9.49984 2.52024 9.39435 2.41475C9.28886 2.30926 9.14578 2.25 8.9966 2.25C8.84742 2.25 8.70434 2.30926 8.59885 2.41475C8.49336 2.52024 8.4341 2.66332 8.4341 2.8125V4.00781C7.95012 4.13173 7.52114 4.41321 7.2148 4.80786C6.90846 5.20252 6.74219 5.6879 6.74219 6.1875C6.74219 6.6871 6.90846 7.17248 7.2148 7.56714C7.52114 7.96179 7.95012 8.24327 8.4341 8.36719V15.1875C8.4341 15.3367 8.49336 15.4798 8.59885 15.5852C8.70434 15.6907 8.84742 15.75 8.9966 15.75C9.14578 15.75 9.28886 15.6907 9.39435 15.5852C9.49984 15.4798 9.5591 15.3367 9.5591 15.1875V8.36719C10.0431 8.24327 10.4721 7.96179 10.7784 7.56714C11.0847 7.17248 11.251 6.6871 11.251 6.1875C11.251 5.6879 11.0847 5.20252 10.7784 4.80786C10.4721 4.41321 10.0431 4.13173 9.5591 4.00781ZM8.9966 7.3125C8.7741 7.3125 8.55659 7.24652 8.37158 7.1229C8.18658 6.99929 8.04238 6.82359 7.95724 6.61802C7.87209 6.41245 7.84981 6.18625 7.89322 5.96802C7.93662 5.74979 8.04377 5.54934 8.20111 5.392C8.35844 5.23467 8.55889 5.12752 8.77712 5.08412C8.99535 5.04071 9.22155 5.06299 9.42712 5.14814C9.63269 5.23328 9.80839 5.37748 9.932 5.56248C10.0556 5.74749 10.1216 5.965 10.1216 6.1875C10.1216 6.48587 10.0031 6.77202 9.7921 6.983C9.58112 7.19397 9.29497 7.3125 8.9966 7.3125ZM16.3091 11.8125C16.3086 11.3137 16.1427 10.8291 15.8373 10.4347C15.532 10.0402 15.1044 9.75822 14.6216 9.63281V2.8125C14.6216 2.66332 14.5623 2.52024 14.4568 2.41475C14.3514 2.30926 14.2083 2.25 14.0591 2.25C13.9099 2.25 13.7668 2.30926 13.6614 2.41475C13.5559 2.52024 13.4966 2.66332 13.4966 2.8125V9.63281C13.0126 9.75673 12.5836 10.0382 12.2773 10.4329C11.971 10.8275 11.8047 11.3129 11.8047 11.8125C11.8047 12.3121 11.971 12.7975 12.2773 13.1921C12.5836 13.5868 13.0126 13.8683 13.4966 13.9922V15.1875C13.4966 15.3367 13.5559 15.4798 13.6614 15.5852C13.7668 15.6907 13.9099 15.75 14.0591 15.75C14.2083 15.75 14.3514 15.6907 14.4568 15.5852C14.5623 15.4798 14.6216 15.3367 14.6216 15.1875V13.9922C15.1044 13.8668 15.532 13.5848 15.8373 13.1903C16.1427 12.7959 16.3086 12.3113 16.3091 11.8125ZM14.0591 12.9375C13.8366 12.9375 13.6191 12.8715 13.4341 12.7479C13.2491 12.6243 13.1049 12.4486 13.0197 12.243C12.9346 12.0375 12.9123 11.8113 12.9557 11.593C12.9991 11.3748 13.1063 11.1743 13.2636 11.017C13.4209 10.8597 13.6214 10.7525 13.8396 10.7091C14.0579 10.6657 14.2841 10.688 14.4896 10.7731C14.6952 10.8583 14.8709 11.0025 14.9945 11.1875C15.1181 11.3725 15.1841 11.59 15.1841 11.8125C15.1841 12.1109 15.0656 12.397 14.8546 12.608C14.6436 12.819 14.3575 12.9375 14.0591 12.9375Z" fill="#3F3F3F"/>
</svg>
