<svg width="18" height="18" viewBox="0 0 18 18" fill="none" xmlns="http://www.w3.org/2000/svg">
<path d="M9 9C9 9.14918 8.94074 9.29226 8.83525 9.39775C8.72976 9.50324 8.58668 9.5625 8.4375 9.5625H3.375C3.22582 9.5625 3.08274 9.50324 2.97725 9.39775C2.87176 9.29226 2.8125 9.14918 2.8125 9C2.8125 8.85082 2.87176 8.70774 2.97725 8.60225C3.08274 8.49676 3.22582 8.4375 3.375 8.4375H8.4375C8.58668 8.4375 8.72976 8.49676 8.83525 8.60225C8.94074 8.70774 9 8.85082 9 9ZM3.375 5.0625H12.9375C13.0867 5.0625 13.2298 5.00324 13.3352 4.89775C13.4407 4.79226 13.5 4.64918 13.5 4.5C13.5 4.35082 13.4407 4.20774 13.3352 4.10225C13.2298 3.99676 13.0867 3.9375 12.9375 3.9375H3.375C3.22582 3.9375 3.08274 3.99676 2.97725 4.10225C2.87176 4.20774 2.8125 4.35082 2.8125 4.5C2.8125 4.64918 2.87176 4.79226 2.97725 4.89775C3.08274 5.00324 3.22582 5.0625 3.375 5.0625ZM7.3125 12.9375H3.375C3.22582 12.9375 3.08274 12.9968 2.97725 13.1023C2.87176 13.2077 2.8125 13.3508 2.8125 13.5C2.8125 13.6492 2.87176 13.7923 2.97725 13.8977C3.08274 14.0032 3.22582 14.0625 3.375 14.0625H7.3125C7.46168 14.0625 7.60476 14.0032 7.71025 13.8977C7.81574 13.7923 7.875 13.6492 7.875 13.5C7.875 13.3508 7.81574 13.2077 7.71025 13.1023C7.60476 12.9968 7.46168 12.9375 7.3125 12.9375ZM16.148 11.4145C16.0957 11.3622 16.0337 11.3207 15.9654 11.2924C15.8971 11.2641 15.8239 11.2496 15.75 11.2496C15.6761 11.2496 15.6029 11.2641 15.5346 11.2924C15.4663 11.3207 15.4043 11.3622 15.352 11.4145L13.5 13.2673V7.875C13.5 7.72582 13.4407 7.58274 13.3352 7.47725C13.2298 7.37176 13.0867 7.3125 12.9375 7.3125C12.7883 7.3125 12.6452 7.37176 12.5398 7.47725C12.4343 7.58274 12.375 7.72582 12.375 7.875V13.2673L10.523 11.4145C10.4174 11.309 10.2743 11.2497 10.125 11.2497C9.97573 11.2497 9.83258 11.309 9.72703 11.4145C9.62148 11.5201 9.56219 11.6632 9.56219 11.8125C9.56219 11.9618 9.62148 12.1049 9.72703 12.2105L12.5395 15.023C12.5918 15.0753 12.6538 15.1168 12.7221 15.1451C12.7904 15.1734 12.8636 15.1879 12.9375 15.1879C13.0114 15.1879 13.0846 15.1734 13.1529 15.1451C13.2212 15.1168 13.2832 15.0753 13.3355 15.023L16.148 12.2105C16.2003 12.1582 16.2418 12.0962 16.2701 12.0279C16.2984 11.9596 16.3129 11.8864 16.3129 11.8125C16.3129 11.7386 16.2984 11.6654 16.2701 11.5971C16.2418 11.5288 16.2003 11.4668 16.148 11.4145Z" fill="#3F3F3F"/>
</svg>
